<?xml version="1.0" standalone="no"?>
<!DOCTYPE svg PUBLIC "-//W3C//DTD SVG 20010904//EN"
 "http://www.w3.org/TR/2001/REC-SVG-20010904/DTD/svg10.dtd">
<svg version="1.0" xmlns="http://www.w3.org/2000/svg"
 width="1080.000000pt" height="1080.000000pt" viewBox="0 0 1080.000000 1080.000000"
 preserveAspectRatio="xMidYMid meet">

<g transform="translate(0.000000,1080.000000) scale(0.100000,-0.100000)"
fill="#000000" stroke="none">
<path d="M5515 8781 c-3 -6 -20 -8 -38 -6 -32 3 -32 3 -9 -12 12 -8 22 -20 22
-26 0 -5 -9 -2 -21 9 -21 19 -21 18 -40 -5 -10 -13 -19 -19 -19 -14 0 5 5 14
12 21 9 9 9 12 0 12 -7 0 -15 -7 -19 -16 -5 -12 -9 -10 -23 11 l-17 27 -24
-24 c-25 -23 -67 -38 -54 -19 11 18 -18 39 -41 30 -12 -4 -24 -5 -27 -2 -3 3
-3 -5 0 -17 5 -20 4 -21 -15 -11 -30 16 -40 14 -45 -11 l-4 -23 -2 23 c-1 27
-6 27 -33 3 -11 -11 -27 -17 -37 -13 -14 5 -14 4 -1 -13 14 -17 13 -18 -7 -13
-14 4 -24 1 -27 -8 -3 -8 -15 -14 -27 -14 -16 0 -19 -4 -15 -17 6 -15 4 -15
-14 2 -11 10 -20 23 -20 29 0 7 -18 12 -42 12 -24 1 -35 -1 -25 -3 19 -5 23
-38 7 -48 -6 -4 -19 -1 -28 7 -15 12 -16 11 -3 -5 8 -9 11 -20 8 -23 -9 -10
-39 5 -32 15 3 6 -12 8 -35 7 -28 -2 -46 -10 -56 -24 -8 -12 -20 -19 -27 -16
-9 3 -12 -5 -9 -28 2 -18 -1 -44 -7 -58 -10 -24 -11 -23 -7 8 4 27 1 32 -17
32 -11 0 -17 -3 -14 -7 4 -3 0 -11 -9 -17 -9 -7 -19 -28 -23 -46 -5 -26 -13
-36 -29 -38 -15 -2 -22 2 -22 12 0 9 -4 16 -8 16 -12 0 -52 -44 -52 -58 0 -7
-6 -12 -13 -12 -24 0 -110 -97 -103 -116 3 -7 -6 -22 -19 -32 -18 -14 -21 -22
-12 -31 6 -6 7 -12 2 -12 -6 -1 -16 -2 -24 -3 -8 0 -19 -16 -23 -34 -6 -24
-13 -32 -24 -28 -9 4 -14 -1 -14 -14 0 -11 -4 -20 -10 -20 -5 0 -10 -6 -10
-14 0 -8 -6 -17 -12 -19 -8 -3 -6 -6 5 -6 10 -1 17 -7 16 -13 -4 -31 2 -59 11
-53 6 3 7 -1 4 -9 -3 -9 -11 -13 -17 -9 -6 4 -8 -2 -5 -15 4 -12 2 -22 -3 -22
-5 0 -9 5 -9 10 0 23 -41 9 -51 -17 -21 -52 -32 -73 -37 -68 -3 2 -13 0 -23
-6 -21 -11 -25 -39 -8 -56 9 -9 8 -16 -5 -28 -20 -20 -20 -24 1 -47 15 -17 15
-19 -2 -38 -10 -11 -25 -20 -34 -21 -12 0 -11 -3 4 -8 11 -5 22 -5 25 -1 3 3
13 9 23 13 15 5 16 2 11 -20 -6 -21 -4 -25 9 -20 15 6 27 -11 27 -39 0 -21
-31 -17 -37 5 -3 13 -11 17 -26 13 -20 -5 -20 -6 4 -15 20 -8 21 -11 7 -14
-10 -3 -18 -11 -18 -19 0 -8 -5 -14 -11 -14 -5 0 -7 -5 -3 -11 3 -6 20 -9 36
-7 22 4 28 1 24 -9 -3 -8 -1 -11 4 -8 18 11 46 -4 47 -27 1 -11 7 -24 13 -28
7 -5 6 -11 -4 -19 -8 -7 -12 -18 -10 -26 3 -7 -3 -16 -13 -18 -10 -3 -2 -3 19
0 20 3 46 2 57 -2 22 -7 29 -39 11 -50 -7 -4 -6 -13 1 -26 8 -16 7 -25 -5 -38
-9 -10 -13 -21 -9 -24 3 -4 -2 -7 -12 -7 -18 0 -18 0 0 -13 10 -8 15 -19 11
-25 -3 -6 3 -16 14 -22 11 -6 19 -15 17 -21 -1 -6 6 -13 16 -14 33 -6 30 -13
-17 -40 -25 -15 -46 -29 -46 -32 0 -2 4 -2 9 2 5 3 31 1 57 -5 37 -9 49 -8 56
2 6 10 8 10 8 1 0 -7 9 -13 20 -13 13 0 18 5 14 15 -9 22 22 29 48 11 12 -9
30 -16 38 -16 9 0 27 -11 40 -25 22 -23 21 -29 -5 -26 -5 1 1 -8 15 -20 14
-12 24 -28 22 -35 -2 -8 3 -14 10 -14 8 0 9 -3 3 -8 -14 -10 -16 -45 -2 -54 9
-5 9 -10 -1 -20 -19 -19 -14 -30 8 -18 16 8 20 8 20 -4 0 -8 6 -17 13 -20 9
-5 9 -7 -1 -12 -6 -3 -10 -10 -6 -15 3 -5 -2 -9 -10 -9 -9 0 -16 -4 -16 -10 0
-25 31 -6 59 38 36 56 78 102 93 102 7 0 6 -5 -2 -15 -7 -9 -10 -19 -6 -22 4
-4 10 -3 14 3 13 19 42 25 42 7 0 -13 3 -13 16 -2 13 11 19 8 38 -16 14 -17
27 -25 35 -21 7 5 15 -3 22 -23 13 -36 29 -32 29 7 1 25 1 26 13 7 6 -11 12
-33 13 -48 1 -15 7 -48 14 -73 10 -36 16 -43 31 -39 15 5 19 1 19 -20 0 -15
-4 -24 -10 -20 -5 3 -10 3 -11 -2 0 -4 -2 -45 -4 -90 -4 -96 13 -113 36 -35
12 39 19 48 42 52 16 3 36 17 47 35 22 33 26 50 10 40 -5 -3 -10 0 -10 9 0 8
-3 22 -7 32 -6 15 -3 15 17 -3 12 -12 28 -19 33 -16 6 4 8 0 4 -10 -21 -52
-21 -53 -1 -32 10 12 16 16 12 10 -4 -6 -5 -42 -1 -80 5 -56 8 -65 18 -51 7 9
17 16 24 16 10 0 15 19 12 46 -1 7 6 15 15 18 9 4 14 13 10 21 -6 17 9 20 20
4 3 -6 15 -9 25 -6 12 3 19 0 19 -10 0 -8 5 -11 11 -8 6 4 17 -1 24 -11 14
-18 14 -18 15 4 0 13 -7 37 -16 53 -25 49 -8 45 21 -5 15 -25 31 -46 37 -46 5
0 7 -4 3 -9 -3 -5 0 -13 6 -17 7 -4 9 -3 5 4 -12 20 15 24 32 5 12 -13 28 -18
53 -16 33 3 38 0 53 -31 9 -19 16 -39 16 -45 0 -6 5 -11 10 -11 6 0 10 5 10
10 0 6 7 10 15 10 8 0 15 -7 15 -16 0 -9 5 -13 13 -10 6 3 20 9 30 12 22 8 14
40 -18 71 -13 12 -26 28 -29 35 -5 10 -7 10 -12 1 -8 -18 -24 -16 -24 1 0 22
17 28 40 16 14 -7 26 -8 39 0 22 11 29 4 36 -31 6 -29 6 -29 47 -23 31 6 38
12 52 48 9 23 16 49 16 58 0 11 6 15 20 11 21 -6 27 -28 10 -38 -8 -5 -7 -11
1 -21 9 -12 15 -12 27 -2 12 11 16 11 19 0 3 -7 13 -16 22 -22 15 -8 18 -5 16
14 -3 25 9 27 62 11 21 -7 22 -5 14 21 -5 16 -11 50 -14 76 l-4 47 36 -14 c28
-12 32 -12 18 -1 -15 12 -15 15 -2 26 9 8 15 9 15 2 0 -7 13 -6 35 4 20 8 40
12 45 9 13 -8 40 6 40 21 0 8 5 14 10 14 6 0 10 9 10 20 0 12 -5 17 -14 14 -7
-3 -16 1 -19 9 -12 31 35 4 51 -30 9 -18 21 -32 26 -30 6 3 20 -1 31 -7 61
-33 109 -36 90 -6 -3 6 0 10 7 10 8 0 19 5 26 12 9 9 7 14 -6 24 -11 9 -13 13
-4 14 8 0 6 7 -7 22 -18 18 -22 19 -38 7 -15 -13 -16 -12 -9 6 4 11 8 25 9 30
3 17 40 27 48 13 6 -9 12 -8 27 5 23 21 36 22 28 2 -9 -24 16 -18 67 16 46 30
64 58 30 44 -15 -5 -16 -4 -5 6 17 18 15 37 -5 42 -15 3 -13 6 7 14 16 7 31 7
43 1 13 -7 23 -5 35 6 10 8 31 22 47 30 27 14 28 16 8 16 -28 0 -30 18 -4 28
15 5 17 12 10 30 -5 13 -13 20 -19 17 -6 -4 -7 -11 -4 -17 4 -7 2 -8 -4 -4
-14 8 -1 48 18 54 8 3 10 0 5 -8 -4 -7 -2 -16 4 -20 11 -6 18 -24 20 -53 2
-16 21 5 21 23 0 10 5 21 10 23 6 3 5 4 -2 3 -16 -3 -37 23 -38 45 0 9 9 24
20 34 21 19 21 62 -1 76 -8 4 -5 11 10 19 13 6 20 18 17 25 -3 8 0 16 7 18 9
3 9 10 -1 27 -11 18 -11 25 -1 34 9 8 10 8 5 -1 -3 -6 -2 -14 4 -18 5 -3 10 1
10 9 0 8 -8 20 -19 25 -22 12 -34 63 -18 73 6 4 19 -3 29 -14 22 -25 34 -18
19 11 -11 19 -10 20 14 11 35 -13 39 -13 23 4 -8 7 -24 17 -36 20 -19 6 -52
51 -52 71 0 4 14 4 30 0 19 -4 30 -3 30 4 0 6 -6 11 -13 11 -13 0 -41 39 -33
47 2 3 13 -5 23 -16 9 -12 21 -21 26 -21 17 0 -18 33 -48 46 -24 11 -26 14
-10 15 11 1 23 1 26 1 4 -1 2 10 -5 23 -6 14 -17 23 -23 20 -7 -2 -21 3 -30
13 -10 9 -17 15 -16 13 3 -4 -43 -41 -51 -41 -14 0 -4 22 20 43 33 28 68 42
61 24 -3 -8 3 -13 14 -14 37 -3 13 39 -25 43 -15 1 -24 -2 -21 -7 4 -5 2 -9
-3 -9 -14 0 -33 26 -25 33 3 4 1 7 -7 7 -10 0 -10 3 0 15 7 9 21 13 31 10 31
-10 21 3 -15 20 -27 13 -33 20 -28 38 6 22 6 22 12 -2 8 -35 34 -42 28 -7 -4
18 -1 26 8 26 15 0 18 12 7 23 -3 4 -12 2 -19 -4 -9 -7 -14 -2 -19 21 -5 21
-11 30 -21 26 -7 -3 -16 -1 -19 5 -4 5 -18 0 -34 -13 -16 -13 -37 -29 -48 -37
-20 -13 -21 -51 -2 -51 16 0 9 -30 -11 -50 -32 -32 -23 -68 9 -37 11 10 13 10
7 0 -4 -7 -4 -13 1 -13 4 0 9 -17 10 -38 1 -28 0 -33 -8 -20 -5 10 -16 15 -24
12 -8 -4 -15 -1 -15 5 0 16 -17 13 -24 -5 -4 -9 -2 -13 5 -8 8 4 9 -1 4 -15
-4 -12 0 -34 9 -53 22 -44 10 -49 -25 -10 -25 28 -35 32 -67 29 -48 -5 -50
-29 -2 -35 19 -2 38 -8 41 -14 4 -6 12 -8 17 -4 6 4 16 -3 23 -15 8 -16 8 -23
-1 -29 -9 -6 -9 -9 1 -12 11 -4 11 -8 2 -19 -6 -8 -16 -30 -22 -49 l-11 -35 4
38 c3 25 1 35 -6 31 -7 -5 -8 -2 -3 6 14 22 -17 30 -43 10 -16 -13 -33 -17
-52 -14 -18 4 -30 1 -35 -7 -5 -8 -5 -11 0 -7 10 9 83 -20 123 -49 35 -27 68
-27 66 -1 -1 10 4 14 12 11 10 -4 14 3 14 21 0 27 -1 27 49 -1 2 -2 -2 -9 -9
-18 -7 -8 -9 -15 -4 -15 10 0 10 -72 0 -88 -3 -6 -2 -13 4 -17 13 -8 13 -52 0
-60 -5 -3 -10 -12 -10 -18 0 -7 13 2 28 19 23 27 30 30 44 20 14 -10 14 -14 2
-22 -7 -5 -15 -20 -17 -34 -3 -19 -10 -25 -29 -25 -14 0 -31 -6 -40 -12 -11
-10 -17 -10 -28 0 -10 10 -11 9 -5 -2 6 -11 4 -13 -8 -8 -10 3 -17 2 -17 -4 0
-6 -9 -8 -21 -4 -19 6 -20 5 -9 -15 6 -12 9 -24 6 -28 -3 -3 -6 1 -6 9 -1 10
-5 8 -15 -5 -8 -11 -15 -15 -15 -10 0 6 5 15 11 21 8 8 8 17 0 32 -13 23 -26
27 -36 10 -4 -6 -13 -8 -21 -5 -7 3 -16 1 -19 -4 -9 -14 7 -39 38 -58 19 -13
23 -22 17 -32 -6 -8 -10 -10 -10 -4 0 7 -6 14 -14 17 -10 4 -12 0 -8 -16 2
-12 9 -28 15 -34 6 -9 6 -13 -2 -13 -6 0 -14 7 -17 15 -4 8 -10 12 -15 9 -5
-3 -9 -1 -9 4 0 6 -6 12 -13 15 -8 3 -13 -2 -12 -12 2 -25 15 -42 27 -35 7 5
8 2 3 -6 -8 -12 10 -30 31 -30 14 0 54 38 54 51 0 6 -7 9 -15 5 -8 -3 -15 -4
-15 -1 0 8 32 35 41 35 11 0 1 -49 -14 -67 -5 -7 -6 -13 -1 -13 5 -1 -9 -9
-31 -20 -33 -15 -41 -16 -43 -4 -2 8 -8 14 -13 14 -6 0 -8 -4 -4 -9 7 -12 -12
-24 -25 -16 -7 4 -6 13 1 27 8 15 8 23 -1 32 -8 8 -16 5 -30 -14 -18 -24 -18
-25 1 -38 19 -13 19 -15 4 -32 -17 -18 -59 -35 -50 -19 3 4 -1 19 -10 32 -8
13 -12 27 -8 30 8 9 -29 37 -39 31 -5 -3 -8 -1 -8 5 0 15 18 23 22 9 6 -16 68
28 64 45 -1 7 -1 9 1 5 10 -17 31 -7 37 17 7 26 26 35 26 11 0 -8 6 -16 13
-19 7 -3 12 4 12 19 0 13 -3 24 -6 24 -4 0 -10 10 -13 23 -3 12 -13 31 -21 42
-14 17 -17 18 -25 5 -8 -13 -12 -12 -27 5 -10 11 -12 14 -4 7 12 -10 18 -6 33
26 9 20 17 29 18 20 0 -10 4 -18 9 -18 5 0 8 15 5 33 -3 27 0 33 16 34 11 1
20 -2 20 -7 0 -5 7 -7 15 -4 20 8 19 30 -2 38 -10 4 -13 10 -8 14 13 9 13 35
0 45 -6 4 -5 10 4 16 9 6 10 11 2 15 -6 4 -11 2 -11 -3 0 -6 -7 -11 -16 -11
-8 0 -13 -4 -9 -9 3 -5 1 -12 -4 -15 -5 -3 -11 1 -15 9 -3 8 -1 17 3 20 15 9
19 42 5 42 -7 0 -11 -4 -9 -8 3 -3 -1 -12 -8 -18 -16 -13 -51 23 -43 45 3 8 1
14 -3 14 -17 0 -19 -28 -5 -49 14 -19 13 -20 -2 -14 -12 4 -15 3 -10 -5 4 -7
3 -12 -3 -12 -17 0 -23 20 -11 35 7 8 7 15 1 19 -6 4 0 21 14 42 14 20 23 40
20 44 -3 5 0 10 7 12 7 3 8 10 4 17 -6 9 -11 10 -15 2 -4 -6 -12 4 -19 22 -10
29 -10 30 4 12 14 -19 14 -17 9 24 -6 53 -15 66 -15 25 -1 -26 -2 -27 -14 -12
-7 10 -17 14 -22 9 -5 -5 -24 -13 -43 -20 -33 -11 -33 -10 -18 7 13 14 14 21
5 30 -18 18 -46 14 -58 -8 -6 -11 -19 -20 -30 -20 -14 0 -18 -5 -14 -17 4 -13
3 -14 -3 -5 -6 7 -18 10 -29 6 -18 -7 -18 -6 -2 12 17 17 17 19 -4 41 -23 25
-18 44 7 23 9 -7 18 -10 22 -6 3 3 1 6 -5 6 -7 0 -12 6 -12 13 1 6 11 0 23
-15 24 -30 37 -35 37 -17 0 7 7 17 15 23 12 9 13 18 5 45 -5 19 -7 37 -5 41 2
4 -7 5 -20 2 -22 -4 -25 -1 -25 24 0 16 -4 25 -8 19 -9 -13 -49 -35 -62 -35
-5 0 -10 7 -10 16 0 8 -5 12 -11 9 -7 -5 -4 -14 7 -26 20 -22 7 -46 -19 -36
-23 9 -29 60 -8 77 10 8 29 41 42 73 18 45 25 54 30 40 4 -10 8 -12 8 -5 1 7
12 17 26 22 31 12 33 36 4 43 -15 4 -20 11 -16 21 4 9 3 16 -2 16 -5 0 -16
-20 -25 -45 -10 -25 -21 -45 -26 -45 -4 0 -11 -16 -14 -35 -4 -20 -13 -35 -21
-35 -11 0 -11 7 -3 36 5 20 7 38 4 42 -3 3 -6 -2 -6 -10 0 -9 -6 -18 -14 -21
-10 -4 -16 3 -18 21 l-4 27 -12 -29 c-7 -16 -15 -26 -19 -22 -3 3 -12 1 -20
-5 -17 -15 -17 -5 3 32 10 20 12 35 6 42 -6 8 -5 29 3 60 7 26 9 50 5 52 -4 2
-25 7 -46 11 -32 5 -43 2 -58 -15 -17 -19 -17 -21 -2 -21 14 0 15 -4 6 -20 -6
-11 -16 -20 -22 -20 -7 0 -6 5 2 15 17 20 -4 20 -24 -1 -9 -8 -16 -21 -16 -29
0 -7 -3 -22 -7 -32 -7 -17 -6 -17 11 0 25 24 82 67 89 67 4 0 7 -7 7 -15 0 -8
7 -15 15 -15 23 0 18 -36 -13 -118 -28 -70 -62 -122 -81 -122 -8 0 -6 51 3
101 4 22 -22 20 -29 -2 -4 -10 -2 -27 4 -37 6 -11 6 -24 0 -33 -5 -7 -9 -9 -9
-3 0 6 -15 28 -34 49 -19 21 -32 44 -29 52 3 7 0 13 -6 13 -6 0 -11 -5 -11
-12 0 -6 -10 -22 -22 -35 l-21 -23 29 -1 c16 0 23 -3 16 -6 -10 -4 -10 -8 0
-20 6 -8 11 -36 10 -61 -1 -43 0 -44 8 -17 5 16 7 43 5 60 -4 20 -2 25 4 16 5
-7 13 -11 17 -8 5 3 10 -15 11 -39 1 -29 -2 -42 -8 -38 -6 3 -5 -3 3 -15 11
-18 10 -26 -6 -56 -11 -19 -26 -35 -35 -35 -11 0 -12 3 -4 8 6 4 9 19 6 36
l-6 29 -13 -24 c-7 -13 -13 -32 -14 -41 0 -10 -6 -18 -12 -18 -7 0 -24 -3 -38
-6 -24 -6 -24 -6 -6 8 15 12 16 19 8 35 -21 38 -40 48 -61 29 -17 -16 -19 -16
-26 6 -7 22 -7 22 -12 3 -8 -31 -20 -39 -28 -16 -5 17 -12 19 -38 14 -46 -8
-46 -13 -1 -13 52 -1 24 -18 -34 -21 -40 -3 -58 -22 -29 -32 10 -4 10 -7 0
-18 -10 -9 -13 -10 -13 -1 0 7 -8 12 -18 12 -11 0 -26 8 -35 18 -13 14 -14 22
-4 42 7 13 23 27 37 30 14 3 26 11 26 18 1 7 2 17 3 22 2 17 61 12 61 -5 0
-19 47 -16 55 3 3 8 12 12 19 9 9 -4 14 0 14 11 -1 9 2 36 6 60 9 47 -4 57
-22 17 -6 -14 -18 -25 -26 -25 -26 0 -46 12 -46 27 0 8 5 11 11 7 8 -5 8 -1 0
14 -6 12 -15 24 -21 27 -11 7 -40 -46 -40 -75 0 -14 -6 -20 -23 -20 -13 0 -39
-8 -58 -17 -18 -9 -59 -18 -91 -20 -55 -3 -58 -1 -73 26 -8 17 -19 33 -25 36
-12 7 -40 -18 -40 -36 0 -7 -12 -2 -27 12 l-27 24 26 -36 c19 -26 24 -39 17
-52 -7 -11 -6 -17 1 -17 5 0 10 7 10 15 0 8 5 15 10 15 13 0 13 -27 0 -35 -6
-4 -7 -12 -4 -18 5 -8 3 -8 -7 1 -19 18 -35 15 -36 -7 -1 -11 9 -23 23 -30 39
-17 51 -13 58 20 5 25 10 30 26 26 10 -3 21 0 22 5 6 16 48 -9 48 -27 0 -8 5
-15 10 -15 6 0 10 5 10 10 0 6 16 -5 35 -25 20 -19 33 -40 29 -46 -3 -6 1 -9
11 -7 10 2 20 -3 23 -11 3 -10 0 -11 -9 -5 -18 10 8 -25 31 -43 8 -6 12 -15 8
-19 -4 -4 -14 -1 -23 6 -10 8 -15 9 -15 1 0 -6 5 -11 10 -11 6 0 10 -5 10 -11
0 -6 -7 -9 -15 -5 -22 8 -52 -41 -36 -57 10 -9 20 -3 48 28 19 22 32 34 28 28
-3 -8 0 -13 9 -13 8 0 18 -5 22 -12 5 -8 2 -9 -9 -5 -12 4 -21 -2 -32 -23 -18
-34 -18 -40 -4 -40 5 0 8 3 5 8 -2 4 2 15 9 25 13 18 13 18 19 -1 4 -11 4 -26
0 -35 -3 -10 3 -20 17 -28 23 -12 23 -12 3 -20 -12 -4 -24 -17 -27 -28 -7 -27
10 -28 18 -1 9 29 28 25 23 -5 -4 -17 -1 -25 8 -25 19 0 17 -27 -2 -34 -11 -4
-15 -2 -11 8 7 17 -19 29 -39 18 -11 -6 -11 -12 2 -37 17 -33 29 -85 19 -85
-31 0 -75 58 -75 99 0 17 -5 20 -30 15 -34 -7 -46 10 -36 52 5 18 12 24 22 20
8 -3 25 3 37 15 18 17 20 21 7 29 -10 7 -11 10 -2 10 6 0 12 5 12 10 0 6 -7
10 -15 10 -8 0 -15 -7 -15 -15 0 -8 -4 -15 -10 -15 -5 0 -10 5 -10 10 0 23
-18 8 -23 -20 -6 -25 -11 -30 -36 -30 -16 0 -33 5 -36 10 -7 11 12 41 23 37 4
-1 18 6 32 15 17 13 21 21 13 29 -12 12 4 69 19 69 4 0 10 0 13 0 3 -1 13 7
22 16 16 15 16 17 0 29 -9 6 -15 15 -12 19 3 3 -1 2 -7 -4 -18 -15 -24 -12
-24 10 0 11 4 20 9 20 4 0 5 5 2 10 -10 15 -25 12 -25 -6 0 -14 -1 -14 -16 0
-19 20 -20 20 -28 0 -4 -10 -2 -13 6 -8 8 5 9 2 5 -10 -4 -9 0 -32 7 -51 12
-27 12 -36 2 -44 -7 -6 -16 -7 -20 -3 -4 4 -14 -2 -22 -12 -17 -23 -17 -21 -4
22 7 27 7 32 -4 23 -7 -6 -15 -9 -18 -6 -3 3 -11 -1 -17 -9 -8 -10 -9 -16 -1
-21 5 -3 10 -1 10 4 0 6 5 11 10 11 12 0 -6 -40 -24 -53 -7 -5 -5 -11 7 -18
20 -12 23 -45 5 -52 -7 -2 -25 0 -41 6 -19 6 -32 6 -42 -3 -11 -9 -18 -9 -30
4 -19 19 -42 21 -47 5 -2 -7 -10 -4 -18 7 -9 10 -10 15 -3 10 7 -4 22 2 34 13
12 11 26 18 30 15 5 -3 6 3 2 12 -4 11 -3 15 5 10 6 -3 16 3 22 14 9 16 8 20
-7 21 -10 1 -22 0 -28 -1 -38 -8 -45 -8 -45 1 0 5 4 9 10 9 5 0 7 6 4 14 -4
10 4 13 29 12 23 -1 33 -5 30 -13 -7 -17 22 -17 35 0 6 7 9 23 5 35 -6 26 13
30 21 5 2 -10 4 -7 3 7 -2 15 -8 24 -16 22 -7 -1 -15 7 -18 18 -3 11 -9 20
-13 20 -11 0 -34 -30 -24 -30 10 -1 -63 -29 -86 -34 -8 -2 -14 -13 -14 -25 1
-11 -3 -21 -7 -21 -5 0 -11 0 -14 0 -3 0 -6 3 -6 8 -1 4 -10 18 -21 32 -17 22
-18 25 -4 28 9 2 16 9 16 15 0 9 2 9 8 0 4 -6 23 -13 42 -15 26 -2 35 1 38 13
6 30 -86 41 -133 17 -16 -8 -18 -8 -8 2 8 9 9 19 2 32 -10 18 -29 16 -29 -3 0
-6 5 -7 10 -4 6 4 5 -5 -2 -20 -6 -14 -17 -24 -24 -21 -7 3 -15 -3 -17 -12 -4
-14 -6 -13 -12 5 -5 15 -12 20 -23 16 -14 -5 -15 -3 -4 8 21 23 15 66 -10 73
l-23 7 24 10 c14 5 30 8 38 5 20 -8 25 12 6 23 -22 12 -14 21 23 24 21 2 28 8
26 20 -2 10 4 17 13 17 8 0 15 -6 15 -14 0 -8 3 -21 6 -30 5 -12 0 -16 -20
-16 -15 0 -30 -8 -36 -19 -8 -16 -6 -23 12 -35 28 -20 42 -20 34 -1 -6 18 28
88 38 78 13 -13 5 -44 -14 -51 -12 -4 -16 -12 -12 -19 6 -10 16 -10 43 -2 34
11 60 16 89 18 12 1 11 4 -3 12 -10 6 -21 8 -24 5 -6 -6 -43 32 -43 45 0 4 6
10 13 13 8 3 5 11 -12 25 -13 12 -19 21 -13 21 15 0 63 -41 57 -50 -3 -4 4 -6
15 -3 25 7 25 11 -1 31 -23 20 -17 57 8 47 12 -4 14 1 11 20 -3 16 -1 25 7 25
16 0 28 28 18 42 -3 7 -1 8 5 4 8 -5 12 1 12 18 0 26 -21 48 -28 28 -11 -33
-47 -1 -101 90 -24 41 -9 48 30 12 l22 -19 -8 24 c-5 16 -4 21 4 17 7 -5 9 3
5 23 -5 24 -3 29 11 27 20 -3 58 29 68 57 4 10 11 16 16 12 6 -3 8 -12 4 -20
-3 -10 1 -15 12 -15 13 0 16 6 13 25 -6 29 23 61 47 52 8 -4 15 -2 15 3 0 5 7
7 17 3 12 -5 9 6 -13 45 -27 48 -54 73 -40 37 3 -8 2 -15 -3 -15 -10 0 -33 51
-26 58 3 3 5 -1 5 -9 1 -10 4 -9 11 4 6 10 8 26 4 35 -15 40 60 -48 81 -94 28
-62 42 -130 25 -120 -6 4 -11 2 -11 -3 0 -6 5 -11 11 -11 5 0 7 -4 4 -10 -3
-5 -1 -10 5 -10 6 0 8 -5 4 -11 -4 -7 -1 -10 7 -7 8 3 21 -1 30 -9 15 -12 16
-11 12 12 -3 13 -9 23 -13 20 -22 -13 -42 108 -27 160 3 11 6 26 6 33 1 7 6
10 13 6 8 -5 9 -2 5 9 -3 10 -3 17 2 17 5 0 12 11 15 25 8 32 18 32 38 -2 22
-39 30 -92 19 -131 -8 -25 -7 -32 5 -32 8 0 14 -7 14 -15 0 -19 7 -19 28 2 16
16 17 16 20 0 2 -9 8 -17 13 -17 9 0 -5 37 -33 85 -18 29 -24 98 -12 129 9 24
37 19 62 -9 21 -24 21 -27 6 -64 -12 -29 -13 -45 -5 -58 10 -17 10 -17 11 0 0
20 17 52 41 78 14 14 19 15 30 3 12 -11 14 -3 15 49 1 35 -2 53 -6 42 -6 -17
-8 -15 -12 12 -2 18 -1 39 4 47 5 9 4 17 -2 21 -8 5 -7 11 1 21 6 8 9 14 6 14
-3 0 -8 -4 -12 -9z m-165 -51 c0 -5 -2 -10 -4 -10 -3 0 -8 5 -11 10 -3 6 -1
10 4 10 6 0 11 -4 11 -10z m-104 -48 c-9 -8 -26 10 -26 26 1 15 2 15 15 -2 8
-11 13 -21 11 -24z m-41 8 c3 -5 1 -10 -4 -10 -6 0 -11 5 -11 10 0 6 2 10 4
10 3 0 8 -4 11 -10z m270 -28 c-3 -3 -12 -7 -21 -8 -11 -2 -12 1 -5 10 6 7 7
17 3 22 -4 4 1 2 11 -5 9 -8 15 -16 12 -19z m-384 -31 c-9 -6 -10 -11 -2 -15
6 -4 11 -12 11 -19 0 -12 -29 23 -30 36 0 4 8 7 18 7 13 0 14 -2 3 -9z m-241
-21 c0 -5 -4 -10 -10 -10 -5 0 -10 5 -10 10 0 6 5 10 10 10 6 0 10 -4 10 -10z
m173 -11 c12 -12 16 -18 8 -14 -11 6 -13 4 -8 -9 5 -12 3 -16 -5 -13 -7 2 -12
11 -10 21 2 9 -2 16 -8 16 -5 0 -10 5 -10 10 0 15 9 12 33 -11z m182 -9 c10
-11 14 -20 9 -20 -5 0 -15 9 -22 20 -7 11 -11 20 -9 20 2 0 12 -9 22 -20z
m-139 -82 c14 -27 14 -33 -1 -64 -20 -43 -33 -43 -37 -1 -2 25 -7 31 -21 29
-15 -3 -17 1 -12 19 6 19 4 21 -14 16 -11 -3 -21 -1 -21 4 0 13 34 11 48 -3 9
-9 12 -7 12 8 0 44 21 40 46 -8z m-286 -12 c0 -3 -4 -8 -10 -11 -5 -3 -10 -1
-10 4 0 6 5 11 10 11 6 0 10 -2 10 -4z m160 -27 c0 -5 -4 -9 -10 -9 -5 0 -10
7 -10 16 0 8 5 12 10 9 6 -3 10 -10 10 -16z m55 -65 c-15 -15 -17 -15 -30 2
-8 11 -15 34 -15 52 l0 33 31 -35 c29 -33 30 -37 14 -52z m-180 36 c3 -5 1
-10 -4 -10 -6 0 -11 5 -11 10 0 6 2 10 4 10 3 0 8 -4 11 -10z m102 -56 c-9 -9
-28 6 -21 18 4 6 10 6 17 -1 6 -6 8 -13 4 -17z m-40 -16 c-3 -8 -6 -5 -6 6 -1
11 2 17 5 13 3 -3 4 -12 1 -19z m-276 -35 c13 -16 12 -17 -3 -4 -10 7 -18 15
-18 17 0 8 8 3 21 -13z m303 1 c4 -10 1 -14 -6 -12 -15 5 -23 28 -10 28 5 0
13 -7 16 -16z m-197 -39 c0 -8 -6 -15 -14 -15 -7 0 -13 7 -13 15 0 8 6 15 13
15 8 0 14 -7 14 -15z m93 -20 c6 4 8 10 5 15 -9 15 34 18 52 3 10 -8 12 -12 6
-8 -7 3 -13 2 -13 -3 0 -6 8 -13 18 -17 16 -6 16 -7 -1 -16 -24 -14 -5 -39 29
-39 13 0 24 -5 24 -11 0 -7 -10 -9 -25 -5 -30 8 -32 -7 -5 -34 11 -11 20 -25
20 -31 0 -5 4 -8 9 -5 4 3 6 -6 3 -19 -3 -18 0 -25 11 -25 28 0 31 -22 7 -42
-13 -10 -26 -15 -29 -11 -3 5 -23 17 -43 28 -21 11 -38 23 -38 27 0 5 -5 8
-11 8 -6 0 -9 -6 -6 -12 7 -19 -10 -58 -26 -58 -8 0 -22 8 -31 19 -16 17 -16
19 5 24 12 3 18 10 14 17 -4 6 -10 24 -15 40 -10 36 5 40 38 10 18 -17 22 -18
22 -5 0 12 6 15 21 10 15 -5 19 -4 15 4 -4 6 -14 11 -23 11 -14 0 -14 3 1 25
19 30 20 31 2 38 -10 4 -12 0 -9 -14 3 -11 0 -19 -6 -19 -7 0 -9 5 -6 11 4 6
1 9 -6 8 -20 -3 -54 14 -56 29 -5 20 15 14 31 -10 11 -15 16 -18 16 -7 0 18
-38 52 -50 44 -6 -3 -7 1 -4 9 3 9 10 13 15 10 5 -3 9 5 10 18 l0 23 10 -23
c5 -13 13 -20 19 -17z m-306 -81 c3 -8 2 -12 -4 -9 -6 3 -10 10 -10 16 0 14 7
11 14 -7z m156 -9 c-8 -9 -7 -14 2 -18 7 -2 10 -8 6 -12 -12 -12 -28 5 -28 30
0 18 4 23 15 19 11 -5 13 -10 5 -19z m-103 0 c0 -8 -4 -15 -9 -15 -10 0 -11
14 -1 23 9 10 10 9 10 -8z m150 -7 c-3 -8 -6 -5 -6 6 -1 11 2 17 5 13 3 -3 4
-12 1 -19z m282 -21 c6 -8 8 -17 4 -20 -7 -8 -33 11 -33 24 0 13 16 11 29 -4z
m-271 -27 c5 -13 3 -13 -11 -1 -14 11 -17 11 -18 0 -1 -8 -1 -17 0 -21 2 -12
-17 -10 -24 2 -9 15 15 42 33 38 9 -2 18 -10 20 -18z m37 -10 c3 -5 1 -10 -4
-10 -6 0 -11 5 -11 10 0 6 2 10 4 10 3 0 8 -4 11 -10z m-188 -15 c0 -8 -6 -15
-13 -15 -8 0 -11 6 -8 15 4 8 9 15 13 15 4 0 8 -7 8 -15z m-83 -31 c3 -8 2
-12 -4 -9 -6 3 -10 10 -10 16 0 14 7 11 14 -7z m223 -4 c2 -22 -12 -27 -23 -9
-5 9 5 22 21 29 1 0 1 -9 2 -20z m-87 -25 c-6 -8 -8 -20 -4 -27 5 -10 4 -10
-5 -2 -13 12 -5 44 11 44 6 0 5 -6 -2 -15z m1290 -29 c0 -6 -7 -1 -15 10 -8
10 -15 23 -15 28 0 6 7 1 15 -10 8 -10 15 -23 15 -28z m-1540 24 c0 -5 -2 -10
-4 -10 -3 0 -8 5 -11 10 -3 6 -1 10 4 10 6 0 11 -4 11 -10z m154 4 c9 -3 16
-11 16 -16 0 -6 -7 -8 -15 -4 -9 3 -15 0 -15 -9 0 -17 -16 -20 -25 -5 -3 6 -1
10 4 10 6 0 11 7 11 15 0 17 2 18 24 9z m2153 -21 c-10 -10 -23 -13 -37 -8
-17 5 -19 9 -9 16 8 4 19 3 26 -3 10 -8 13 -6 13 6 0 10 5 14 11 10 7 -4 6
-11 -4 -21z m-1957 -8 c8 5 11 3 8 -6 -7 -21 -32 -17 -36 6 -2 15 -1 17 6 6 6
-8 15 -10 22 -6z m135 5 c3 -5 15 -10 26 -10 10 0 19 -2 19 -4 0 -2 3 -11 6
-20 5 -13 1 -14 -27 -6 -30 9 -48 25 -49 43 0 10 18 9 25 -3z m-491 -9 c3 -5
-1 -11 -9 -14 -9 -4 -12 -1 -8 9 6 16 10 17 17 5z m456 -1 c0 -14 -60 -39 -77
-33 -19 7 -8 16 25 21 15 2 31 7 37 13 12 12 15 11 15 -1z m1804 -11 c-3 -5 0
-9 5 -9 6 0 11 -7 11 -15 0 -23 -26 -18 -42 8 -14 21 -14 22 8 23 13 1 21 -2
18 -7z m-2129 -27 c-3 -3 -11 0 -18 7 -9 10 -8 11 6 5 10 -3 15 -9 12 -12z
m79 -8 c10 -25 -1 -29 -14 -5 -6 12 -7 21 -1 21 5 0 12 -7 15 -16z m-165 -10
c1 -1 1 -8 -1 -14 -2 -8 -13 -4 -28 10 l-25 21 25 -7 c14 -3 27 -8 29 -10z
m996 6 c-3 -5 -11 -10 -16 -10 -6 0 -7 5 -4 10 3 6 11 10 16 10 6 0 7 -4 4
-10z m-1135 -31 c0 -11 -4 -17 -10 -14 -5 3 -10 13 -10 21 0 8 5 14 10 14 6 0
10 -9 10 -21z m490 6 c0 -8 -9 -15 -20 -15 -13 0 -18 5 -14 15 4 8 12 15 20
15 8 0 14 -7 14 -15z m-289 -18 c-14 -14 -14 -37 -1 -37 6 0 10 7 10 15 0 8 5
15 10 15 14 0 12 -12 -6 -38 -20 -28 -41 -28 -50 0 -4 13 -14 29 -23 36 -14
10 -12 11 13 6 24 -6 28 -4 23 8 -4 12 0 14 14 11 15 -4 17 -9 10 -16z m2199
-19 c0 -11 -18 -10 -25 2 -10 16 -28 11 -21 -6 8 -20 -3 -64 -16 -64 -6 0 -7
9 -3 23 4 12 7 36 7 53 l0 32 29 -17 c16 -9 29 -19 29 -23z m-2030 17 c0 -8
-4 -15 -9 -15 -5 0 -14 7 -21 15 -10 13 -9 15 9 15 12 0 21 -6 21 -15z m1200
0 c0 -9 -6 -12 -16 -8 -8 3 4 -14 28 -37 28 -28 36 -40 23 -36 -16 5 -20 1
-21 -19 -2 -30 -29 -60 -40 -44 -3 6 -1 15 6 19 9 6 6 11 -11 21 -13 7 -25 12
-26 11 -10 -7 -23 1 -28 18 -4 13 3 31 22 55 29 36 63 47 63 20z m54 -1 c5
-14 4 -15 -9 -4 -17 14 -19 20 -6 20 5 0 12 -7 15 -16z m-577 -2 c8 -5 3 -11
-17 -19 -27 -10 -28 -10 -17 8 13 21 17 22 34 11z m-632 -12 c3 -5 1 -10 -4
-10 -6 0 -11 5 -11 10 0 6 2 10 4 10 3 0 8 -4 11 -10z m-335 -10 c0 -5 -2 -10
-4 -10 -3 0 -8 5 -11 10 -3 6 -1 10 4 10 6 0 11 -4 11 -10z m610 0 c0 -5 -5
-10 -11 -10 -5 0 -7 5 -4 10 3 6 8 10 11 10 2 0 4 -4 4 -10z m-660 -20 c0 -5
-2 -10 -4 -10 -3 0 -8 5 -11 10 -3 6 -1 10 4 10 6 0 11 -4 11 -10z m56 -33 c4
-37 -13 -34 -18 3 -3 17 0 29 5 27 5 -1 11 -15 13 -30z m188 -3 c3 -8 2 -12
-4 -9 -6 3 -10 10 -10 16 0 14 7 11 14 -7z m-134 -9 c0 -8 -4 -15 -9 -15 -13
0 -22 16 -14 24 11 11 23 6 23 -9z m318 -10 c-3 -3 -9 2 -12 12 -6 14 -5 15 5
6 7 -7 10 -15 7 -18z m-498 -7 c0 -16 -3 -16 -20 -6 -11 7 -20 15 -20 18 0 3
9 6 20 6 13 0 20 -7 20 -18z m1292 -23 c-3 -20 -9 -24 -27 -19 -16 4 -30 -1
-44 -15 -26 -26 -34 -27 -26 -1 4 11 2 20 -4 20 -6 0 -11 -3 -11 -8 0 -4 -9
-13 -20 -19 -15 -10 -18 -10 -14 0 9 24 44 39 60 26 11 -9 15 -8 20 5 3 9 15
16 25 16 10 0 19 5 19 10 0 6 6 10 14 10 9 0 12 -8 8 -25z m228 15 c0 -5 -4
-10 -10 -10 -5 0 -10 5 -10 10 0 6 5 10 10 10 6 0 10 -4 10 -10z m37 -7 c3
-10 13 -26 21 -35 8 -10 11 -18 6 -18 -10 0 -54 50 -54 62 0 15 21 8 27 -9z
m201 -10 c-13 -16 -15 -16 -21 1 -4 10 0 14 13 13 14 -1 16 -4 8 -14z m-1251
-13 c-1 -11 -5 -20 -9 -20 -4 0 -8 9 -8 20 0 11 4 20 9 20 6 0 9 -9 8 -20z
m1828 6 c30 8 41 -12 14 -26 -17 -10 -23 -8 -35 7 -7 10 -13 23 -13 28 0 6 3
4 6 -2 3 -8 14 -11 28 -7z m65 -12 c0 -8 -4 -12 -10 -9 -5 3 -10 10 -10 16 0
5 5 9 10 9 6 0 10 -7 10 -16z m-2086 -9 c17 -13 14 -41 -4 -30 -5 3 -12 0 -16
-6 -10 -16 -35 18 -27 37 7 18 23 17 47 -1z m1626 5 c0 -5 -4 -10 -10 -10 -5
0 -10 5 -10 10 0 6 5 10 10 10 6 0 10 -4 10 -10z m90 0 c0 -5 -5 -10 -11 -10
-5 0 -7 5 -4 10 3 6 8 10 11 10 2 0 4 -4 4 -10z m-1430 -4 c0 -2 -8 -10 -17
-17 -16 -13 -17 -12 -4 4 13 16 21 21 21 13z m1832 -21 c-22 -27 -19 -65 4
-65 8 0 14 -8 14 -18 0 -10 5 -23 12 -30 14 -14 11 -18 -22 -26 -14 -3 -19 -3
-12 0 17 8 15 27 -3 20 -12 -4 -14 0 -9 18 7 28 -18 42 -37 20 -13 -16 -39 -2
-39 22 0 8 -10 14 -22 15 -14 0 -17 2 -8 6 8 2 25 10 38 16 19 9 25 8 33 -3 8
-13 12 -12 24 4 8 11 15 26 15 33 0 7 7 13 16 13 13 0 12 -4 -4 -25z m53 15
c3 -5 1 -10 -4 -10 -6 0 -11 5 -11 10 0 6 2 10 4 10 3 0 8 -4 11 -10z m-1134
-13 c-1 -4 -1 -13 -1 -21 0 -7 -11 -16 -25 -19 -24 -4 -24 -3 -10 13 8 9 15
22 15 29 0 7 5 11 11 9 6 -2 10 -7 10 -11z m149 3 c-8 -5 -22 -10 -30 -10 -13
0 -13 1 0 10 8 5 22 10 30 10 13 0 13 -1 0 -10z m-1273 -26 c3 -8 15 -14 27
-14 16 0 18 -2 7 -9 -15 -10 -72 17 -78 36 -6 17 38 3 44 -13z m620 4 c-3 -8
-6 -5 -6 6 -1 11 2 17 5 13 3 -3 4 -12 1 -19z m407 -12 c-3 -14 -12 -26 -20
-26 -10 0 -11 -6 -5 -23 9 -24 -2 -57 -19 -57 -5 0 -17 14 -26 32 l-17 32 44
38 c24 20 45 36 47 34 1 -2 0 -15 -4 -30z m308 16 c-7 -2 -12 -9 -12 -17 0 -7
-6 -18 -14 -24 -18 -15 -26 -57 -13 -70 8 -8 7 -11 -1 -11 -7 0 -12 5 -12 10
0 6 -6 10 -14 10 -15 0 -27 53 -15 71 4 8 10 5 18 -7 8 -15 11 -16 12 -4 1 8
1 19 0 23 -1 5 8 11 19 14 11 3 20 10 20 15 0 5 5 6 12 2 9 -6 9 -9 0 -12z
m478 -4 c0 -13 -23 -5 -28 10 -2 7 2 10 12 6 9 -3 16 -11 16 -16z m-1513 -3
c8 -22 -6 -33 -17 -15 -13 20 -12 30 0 30 6 0 13 -7 17 -15z m1963 6 c0 29 21
-9 22 -40 1 -17 5 -31 10 -31 5 0 4 -8 -1 -19 -12 -22 -5 -32 17 -24 15 4 15
3 0 -10 -10 -8 -15 -17 -11 -21 4 -4 -1 -4 -12 -1 -11 4 -26 9 -34 11 -10 3
-11 7 -2 18 9 10 9 16 1 21 -6 4 -8 16 -5 27 5 14 1 21 -13 25 -20 5 -23 18
-8 41 6 10 11 10 22 1 11 -9 14 -8 14 2z m-2405 -11 c3 -5 1 -10 -4 -10 -6 0
-11 5 -11 10 0 6 2 10 4 10 3 0 8 -4 11 -10z m1369 -27 c-1 -21 -3 -40 -4 -43
-5 -12 -16 47 -12 63 8 31 19 18 16 -20z m220 20 c20 -9 37 -26 40 -40 4 -12
11 -23 16 -23 6 0 10 -6 10 -14 0 -8 4 -16 9 -18 4 -1 11 -13 15 -25 6 -18 2
-24 -18 -29 -25 -6 -37 -24 -16 -24 6 0 5 -6 -2 -14 -13 -14 -32 -11 -23 4 3
5 0 12 -6 15 -6 4 -14 17 -19 29 l-9 21 -6 -22 c-4 -12 -12 -20 -19 -17 -7 3
-18 -8 -25 -23 -13 -26 -14 -27 -22 -8 -11 28 -11 37 1 30 15 -9 50 33 50 61
0 15 4 23 11 19 7 -5 9 3 7 21 -2 25 -8 29 -35 32 -43 4 -44 36 -1 41 4 1 23
-6 42 -16z m-1040 -13 c36 13 38 13 34 -6 -2 -10 -15 -18 -33 -20 -16 -2 -40
-6 -51 -8 -16 -4 -21 -1 -20 12 1 19 28 34 37 20 3 -5 17 -4 33 2z m-133 -28
c-4 -10 -6 -23 -4 -29 7 -18 -14 -16 -21 2 -3 8 -1 15 5 15 6 0 8 9 4 20 -5
15 -3 18 9 14 11 -4 13 -11 7 -22z m865 11 c29 -27 55 -79 48 -97 -3 -9 -1
-16 5 -16 6 0 11 -7 11 -16 0 -9 6 -14 13 -11 7 3 19 -4 26 -15 17 -27 26 -15
10 14 -25 45 -20 75 8 47 7 -7 17 -8 25 -3 20 13 46 15 53 4 3 -6 1 -10 -5
-10 -6 0 -18 -7 -26 -15 -8 -8 -21 -12 -29 -9 -12 5 -14 -1 -9 -27 9 -50 12
-59 25 -59 7 0 9 10 6 29 -8 36 -1 42 28 29 25 -11 42 -38 24 -38 -6 0 -3 -7
6 -16 9 -10 14 -25 12 -35 -7 -26 2 -24 13 4 9 22 9 22 9 1 1 -12 -6 -27 -14
-34 -8 -7 -15 -10 -15 -6 0 4 -11 -1 -25 -10 -21 -13 -28 -14 -40 -4 -9 7 -15
20 -14 29 3 29 -1 41 -12 41 -7 0 -9 -9 -5 -24 8 -32 -19 -43 -35 -14 -7 13
-7 18 -1 14 6 -3 13 -2 17 4 3 5 1 10 -4 10 -6 0 -11 9 -11 20 0 11 -23 43
-51 72 -28 28 -46 54 -40 57 7 5 5 17 -4 35 -8 16 -15 34 -15 41 0 7 -6 16
-12 18 -8 3 -8 6 -2 6 6 1 20 -7 30 -16z m487 -9 c52 -18 60 -25 51 -48 -4
-11 -16 -14 -47 -11 -43 4 -67 25 -67 57 0 22 4 22 63 2z m87 9 c0 -5 14 -9
31 -10 31 -2 59 -18 59 -33 0 -10 -43 -5 -67 8 -26 15 -49 42 -34 42 6 0 11
-3 11 -7z m390 -23 c0 -16 -5 -30 -11 -30 -5 0 -8 -4 -5 -9 7 -10 -22 -37 -30
-28 -4 3 3 18 15 33 15 19 18 31 11 39 -5 6 -7 15 -3 18 14 15 23 6 23 -23z
m-2240 16 c0 -3 -4 -8 -10 -11 -5 -3 -10 -1 -10 4 0 6 5 11 10 11 6 0 10 -2
10 -4z m1207 -23 c-7 -6 -46 10 -41 18 3 5 14 3 24 -3 11 -7 18 -13 17 -15z
m310 -17 c19 -43 19 -45 1 -49 -13 -4 -18 1 -20 16 -2 42 -3 46 -11 53 -9 10
-9 24 1 24 5 0 17 -20 29 -44z m-909 10 c-2 -16 -7 -22 -17 -18 -7 3 -19 -2
-25 -10 -8 -11 -18 -13 -34 -7 -29 11 -29 37 1 37 28 0 55 6 63 15 12 11 14 8
12 -17z m310 -31 c-7 -8 -38 23 -38 38 0 6 10 2 22 -10 12 -13 19 -25 16 -28z
m-693 25 c-3 -5 -10 -10 -16 -10 -5 0 -9 5 -9 10 0 6 7 10 16 10 8 0 12 -4 9
-10z m996 -17 c-12 -20 -14 -14 -5 12 4 9 9 14 11 11 3 -2 0 -13 -6 -23z
m-946 -21 c-2 -2 -13 2 -25 8 -17 9 -20 14 -9 20 8 6 17 2 25 -8 7 -9 11 -18
9 -20z m225 22 c0 -8 -4 -12 -10 -9 -5 3 -10 10 -10 16 0 5 5 9 10 9 6 0 10
-7 10 -16z m850 -4 c6 -11 7 -20 2 -20 -6 0 -12 9 -15 20 -3 11 -3 20 -1 20 2
0 8 -9 14 -20z m-1155 0 c3 -5 2 -10 -4 -10 -5 0 -13 5 -16 10 -3 6 -2 10 4
10 5 0 13 -4 16 -10z m1709 -5 c3 -8 1 -15 -5 -15 -6 0 -8 -7 -5 -16 5 -13 1
-15 -21 -9 -16 3 -32 11 -38 17 -7 8 -6 8 4 3 11 -6 13 -4 8 8 -3 9 -1 18 6
21 24 9 45 6 51 -9z m-1877 -50 c-13 -13 -17 -13 -27 1 -7 8 -10 17 -6 21 3 3
6 1 6 -5 0 -7 5 -12 10 -12 6 0 8 11 4 28 l-6 27 17 -23 c14 -19 14 -24 2 -37z
m-59 26 c3 -8 -1 -12 -9 -9 -7 2 -15 10 -17 17 -3 8 1 12 9 9 7 -2 15 -10 17
-17z m112 -1 c0 -5 -4 -10 -10 -10 -5 0 -10 5 -10 10 0 6 5 10 10 10 6 0 10
-4 10 -10z m1180 0 c0 -5 -6 -10 -12 -11 -10 0 -10 -2 0 -6 6 -2 12 -9 12 -15
0 -6 -7 -8 -15 -4 -8 3 -15 1 -15 -3 0 -5 6 -11 14 -14 17 -7 17 -44 0 -51 -6
-2 -17 -1 -24 4 -23 14 4 110 31 110 5 0 9 -4 9 -10z m-830 -30 c0 -5 -2 -10
-4 -10 -3 0 -8 5 -11 10 -3 6 -1 10 4 10 6 0 11 -4 11 -10z m1290 -5 c0 -1 -7
-8 -15 -15 -13 -10 -15 -9 -15 8 0 15 5 20 15 16 8 -4 15 -7 15 -9z m630 5 c0
-5 -7 -10 -15 -10 -8 0 -15 -5 -15 -10 0 -12 40 6 53 24 6 7 7 5 4 -6 -3 -9
-2 -18 3 -20 5 -2 7 -13 3 -26 -3 -15 -11 -21 -20 -18 -7 3 -16 -1 -19 -9 -4
-8 -11 -15 -17 -15 -7 0 -7 4 1 12 16 16 15 39 -2 32 -20 -8 -28 34 -8 46 22
12 32 12 32 0z m-1570 -10 c0 -5 -4 -10 -10 -10 -5 0 -10 5 -10 10 0 6 5 10
10 10 6 0 10 -4 10 -10z m497 -12 c-3 -8 -6 -5 -6 6 -1 11 2 17 5 13 3 -3 4
-12 1 -19z m534 10 c3 -33 -4 -74 -13 -83 -7 -7 -8 -3 -4 10 5 16 0 23 -24 32
-37 14 -38 28 -2 41 37 14 42 14 43 0z m-251 -28 c0 -11 -7 -20 -15 -20 -18 0
-19 6 -2 25 16 19 17 18 17 -5z m337 -2 c-3 -8 -6 -5 -6 6 -1 11 2 17 5 13 3
-3 4 -12 1 -19z m-1817 -4 c0 -8 -4 -12 -10 -9 -5 3 -10 10 -10 16 0 5 5 9 10
9 6 0 10 -7 10 -16z m1235 -4 c3 -5 1 -10 -4 -10 -6 0 -11 5 -11 10 0 6 2 10
4 10 3 0 8 -4 11 -10z m-1028 -35 c-14 -15 -27 -10 -27 10 0 8 7 11 19 8 16
-4 17 -8 8 -18z m2168 15 c-3 -5 -12 -7 -20 -3 -21 7 -19 13 6 13 11 0 18 -4
14 -10z m-2096 -9 c12 -8 12 -12 2 -25 -19 -23 -31 -20 -31 9 0 27 6 30 29 16z
m1575 -4 c4 4 4 0 0 -10 -5 -14 -9 -15 -20 -6 -8 6 -14 16 -14 21 0 7 5 6 13
-1 8 -6 17 -8 21 -4z m-1499 -19 c11 -14 20 -18 22 -11 3 9 9 9 24 0 16 -10
21 -9 29 3 5 8 10 11 10 5 0 -5 3 -21 7 -34 4 -16 2 -22 -4 -18 -6 4 -14 0
-17 -9 -8 -21 -31 -12 -31 12 0 13 -6 18 -19 16 -18 -3 -56 28 -56 48 0 16 14
12 35 -12z m442 10 c5 -7 14 -25 21 -40 10 -25 10 -28 -8 -28 -13 0 -18 5 -14
15 4 8 2 15 -4 15 -5 0 -12 11 -14 25 -6 27 4 33 19 13z m1497 -12 c-7 -18
-20 -21 -29 -6 -3 6 1 10 9 10 9 0 16 5 16 12 0 6 2 9 5 6 3 -3 3 -13 -1 -22z
m43 -1 c-15 -16 -22 -11 -13 10 3 9 10 13 16 10 6 -4 5 -11 -3 -20z m-2246 3
c1 -7 1 -17 0 -21 -1 -5 3 -6 8 -2 6 3 15 -4 21 -15 7 -13 7 -20 0 -20 -5 0
-10 5 -10 11 0 6 -6 9 -12 7 -18 -6 -41 20 -34 37 7 18 26 20 27 3z m736 -10
c-3 -8 -6 -5 -6 6 -1 11 2 17 5 13 3 -3 4 -12 1 -19z m723 7 c0 -9 10 -19 22
-24 14 -5 18 -10 9 -15 -7 -4 -19 2 -30 15 -22 28 -37 19 -58 -32 -10 -26 -21
-39 -34 -39 -24 0 -25 30 -1 31 11 0 13 2 4 6 -10 4 -4 15 19 39 34 36 69 45
69 19z m279 -41 c30 -41 31 -43 9 -35 -13 4 -29 6 -35 4 -7 -3 -13 0 -13 7 0
6 -4 8 -10 5 -5 -3 -10 1 -10 9 0 19 11 21 28 4 9 -9 12 -8 12 5 0 10 -6 20
-14 23 -8 3 -17 12 -20 19 -10 28 22 3 53 -41z m-1929 36 c0 -5 -2 -10 -4 -10
-3 0 -8 5 -11 10 -3 6 -1 10 4 10 6 0 11 -4 11 -10z m1167 -32 c-3 -7 -5 -2
-5 12 0 14 2 19 5 13 2 -7 2 -19 0 -25z m162 -71 c-1 -39 -1 -40 -8 -12 -4 17
-13 40 -20 50 -11 18 -12 18 -8 -7 2 -16 0 -28 -5 -28 -5 0 -7 -3 -5 -7 7 -12
-11 -53 -23 -53 -5 0 -10 18 -10 41 0 24 4 38 10 34 12 -8 13 -3 0 29 -7 20
-6 27 8 35 28 17 62 -30 61 -82z m-177 58 c6 -29 5 -30 -16 -9 -20 19 -21 34
-2 34 7 0 16 -11 18 -25z m-982 -6 c0 -5 -4 -9 -10 -9 -5 0 -10 7 -10 16 0 8
5 12 10 9 6 -3 10 -10 10 -16z m2263 3 c-2 -10 -16 -32 -29 -48 -24 -28 -25
-28 -18 -4 4 14 11 28 17 31 5 4 7 11 3 17 -3 6 2 13 11 15 10 3 19 5 20 6 0
0 -1 -7 -4 -17z m-2358 -22 c3 -5 -3 -10 -15 -10 -12 0 -18 5 -15 10 3 6 10
10 15 10 5 0 12 -4 15 -10z m606 -4 c17 10 9 -15 -11 -34 -13 -12 -18 -25 -14
-35 7 -20 0 -21 -27 -7 -18 10 -18 12 -3 35 10 15 21 22 31 18 12 -5 14 -1 9
18 -3 13 -3 18 0 11 3 -6 10 -10 15 -6z m350 -3 c13 -16 12 -17 -3 -4 -10 7
-18 15 -18 17 0 8 8 3 21 -13z m424 -5 c5 4 5 1 1 -5 -4 -7 -16 -13 -27 -13
-21 0 -22 1 -12 26 6 15 7 15 18 1 7 -9 16 -13 20 -9z m45 -13 c11 -13 10 -14
-4 -9 -9 3 -16 10 -16 15 0 13 6 11 20 -6z m-1445 -5 c3 -5 1 -10 -4 -10 -6 0
-11 5 -11 10 0 6 2 10 4 10 3 0 8 -4 11 -10z m790 -9 c-3 -5 3 -11 12 -14 17
-4 17 -4 0 -12 -10 -4 -20 -5 -24 -2 -6 7 3 37 12 37 4 0 4 -4 0 -9z m952 -17
c1 -18 -2 -23 -9 -16 -6 6 -8 18 -5 26 9 22 12 20 14 -10z m97 -6 c-5 -8 -54
-11 -54 -4 0 24 13 33 35 22 13 -6 21 -14 19 -18z m-1164 3 c0 -15 -7 -19 -30
-19 -35 1 -37 6 -12 24 25 19 42 17 42 -5z m730 -46 c10 6 0 -36 -13 -52 -13
-18 -23 -16 -47 9 -27 29 -26 56 4 64 13 3 28 15 32 27 6 18 8 16 11 -16 2
-20 8 -35 13 -32z m910 56 c0 -5 -7 -14 -15 -21 -16 -14 -18 -10 -9 14 6 17
24 22 24 7z m-2240 -48 c0 -18 -11 -16 -25 4 -18 24 -7 50 11 26 7 -10 14 -24
14 -30z m406 5 c-15 -10 -1 -20 29 -20 26 0 33 -12 15 -23 -6 -4 -8 -10 -5
-15 3 -5 0 -12 -6 -15 -6 -4 -13 2 -16 14 -6 23 -19 28 -26 9 -8 -20 -27 13
-22 37 3 11 2 14 -1 8 -8 -19 -21 -16 -27 7 -4 16 1 22 26 28 25 7 33 5 38 -7
4 -9 1 -19 -5 -23z m1634 17 c0 -8 -4 -16 -9 -19 -5 -3 -8 5 -7 18 1 25 16 26
16 1z m-1186 0 c-4 -9 0 -15 10 -15 18 0 21 -15 6 -25 -6 -4 -18 -1 -27 7 -14
11 -16 11 -9 -1 5 -8 4 -16 -4 -21 -9 -6 -2 -18 25 -44 20 -20 41 -33 47 -30
6 4 9 1 6 -7 -3 -8 1 -28 9 -46 17 -41 16 -48 -2 -33 -8 6 -19 9 -25 5 -5 -3
-21 6 -35 21 -28 30 -26 45 2 23 17 -13 17 -13 1 7 -10 11 -18 24 -18 29 0 5
-10 19 -22 32 -19 20 -20 27 -10 43 8 13 8 20 2 20 -15 0 22 49 37 50 7 0 10
-7 7 -15z m-710 -11 c9 -8 16 -27 16 -42 0 -25 -1 -25 -20 11 -27 51 -26 62 4
31z m146 -10 c0 -16 -16 -19 -25 -4 -8 13 4 32 16 25 5 -4 9 -13 9 -21z m1263
-10 c2 -13 3 -24 1 -24 -11 0 -40 38 -36 48 6 18 30 2 35 -24z m341 24 c-3 -4
-14 -8 -25 -8 -11 0 -18 4 -14 9 3 6 14 9 25 8 10 -1 16 -5 14 -9z m-1164 -14
c11 -12 11 -18 -2 -30 -14 -14 -19 -14 -44 -1 -25 13 -27 16 -11 22 9 4 25 1
35 -6 14 -11 15 -11 5 1 -7 8 -13 18 -13 22 0 13 17 9 30 -8z m374 -56 c-5
-16 -3 -20 10 -15 22 9 30 -10 12 -29 -9 -8 -16 -25 -17 -37 0 -17 -4 -14 -13
12 -13 38 -20 34 -31 -18 -6 -29 -5 -33 9 -28 9 4 16 2 16 -2 0 -10 -24 -21
-46 -21 -15 0 -18 30 -8 93 4 22 12 37 20 37 8 0 15 6 15 13 1 6 2 17 4 22 1
6 3 19 4 30 2 17 4 16 17 -8 9 -16 12 -37 8 -49z m-824 20 c0 -5 -7 -8 -15 -8
-8 0 -15 2 -15 4 0 2 -3 12 -6 21 -6 15 -4 15 15 4 11 -8 21 -17 21 -21z m35
23 c3 -5 2 -12 -3 -15 -5 -3 -9 1 -9 9 0 17 3 19 12 6z m607 -3 c-9 -9 -15 -9
-24 0 -9 9 -7 12 12 12 19 0 21 -3 12 -12z m907 -17 c40 -8 37 -27 -4 -23 -35
4 -31 1 -39 32 -5 17 -4 21 2 12 5 -8 24 -17 41 -21z m-309 -1 c0 -5 -2 -10
-4 -10 -3 0 -8 5 -11 10 -3 6 -1 10 4 10 6 0 11 -4 11 -10z m189 -26 c9 -21
16 -25 37 -20 19 5 25 3 21 -6 -2 -7 -17 -12 -33 -11 -16 2 -44 -2 -61 -8 -37
-12 -62 -4 -44 14 6 6 11 19 11 29 0 19 15 24 25 8 10 -16 28 -12 21 5 -10 26
10 16 23 -11z m46 16 c-3 -5 -11 -10 -16 -10 -6 0 -7 5 -4 10 3 6 11 10 16 10
6 0 7 -4 4 -10z m460 -25 c0 -11 4 -26 8 -33 10 -14 -28 -72 -46 -72 -7 0 -4
7 6 14 21 16 22 26 2 26 -8 0 -15 5 -15 10 0 6 5 10 11 10 6 0 8 14 5 36 -5
30 -3 35 11 32 10 -2 18 -12 18 -23z m-795 -10 c0 -8 5 -15 12 -15 6 0 9 -2 6
-5 -3 -3 -13 -3 -22 1 -17 7 -22 34 -6 34 6 0 10 -7 10 -15z m697 -3 c-12 -3
-16 -9 -12 -23 9 -26 -6 -49 -15 -23 -10 28 9 64 29 56 14 -6 14 -7 -2 -10z
m-907 -31 c9 -34 5 -38 -23 -17 -16 12 -16 17 -6 35 16 24 17 23 29 -18z m140
19 c0 -5 -2 -10 -4 -10 -3 0 -8 5 -11 10 -3 6 -1 10 4 10 6 0 11 -4 11 -10z
m-1140 -4 c0 -11 -19 -15 -25 -6 -3 5 1 10 9 10 9 0 16 -2 16 -4z m484 -81
c-13 -20 -19 -23 -25 -13 -5 7 -4 14 1 16 6 2 10 11 10 19 0 12 -3 13 -13 4
-15 -12 -27 -5 -27 17 0 8 6 12 14 9 8 -3 22 1 33 8 16 12 18 11 21 -10 2 -13
-5 -36 -14 -50z m633 53 c-3 -8 -6 -5 -6 6 -1 11 2 17 5 13 3 -3 4 -12 1 -19z
m163 -6 c-22 -4 -28 -21 -7 -23 22 -2 52 3 62 11 6 4 20 10 33 13 19 4 22 2
17 -10 -3 -9 0 -20 7 -25 9 -5 8 -8 -6 -8 -11 0 -16 -3 -13 -7 7 -6 -21 -32
-35 -33 -5 0 -8 6 -8 14 0 18 -23 27 -41 16 -8 -5 -19 -4 -26 2 -9 7 -13 7
-13 -1 0 -15 -27 -14 -33 2 -2 6 3 17 12 24 14 11 14 12 -1 13 -10 0 -18 5
-18 10 0 18 42 27 66 16 22 -10 22 -11 4 -14z m-901 5 c6 -8 8 -17 4 -20 -3
-4 -1 -7 6 -7 7 0 11 -10 9 -22 -5 -36 -67 -32 -68 4 0 4 6 5 14 2 17 -7 28
30 13 45 -8 8 -8 11 0 11 6 0 16 -6 22 -13z m711 -39 c0 -5 -9 -8 -20 -8 -11
0 -20 7 -20 15 0 8 4 15 10 15 5 0 7 8 4 18 -3 9 2 6 10 -8 8 -14 15 -28 16
-32z m-160 32 c0 -5 -2 -10 -4 -10 -3 0 -8 5 -11 10 -3 6 -1 10 4 10 6 0 11
-4 11 -10z m-937 -17 c-7 -3 -13 -9 -13 -14 0 -5 6 -9 13 -9 6 0 17 -11 23
-23 10 -23 10 -24 -18 -9 -16 8 -32 21 -35 29 -6 14 28 46 37 36 3 -3 -1 -8
-7 -10z m204 2 c9 -24 -1 -27 -15 -5 -8 13 -8 20 -2 20 6 0 13 -7 17 -15z
m1248 -5 c3 -5 1 -10 -4 -10 -6 0 -11 5 -11 10 0 6 2 10 4 10 3 0 8 -4 11 -10z
m175 0 c0 -5 -4 -10 -10 -10 -5 0 -10 5 -10 10 0 6 5 10 10 10 6 0 10 -4 10
-10z m-1395 -20 c3 -5 1 -10 -4 -10 -6 0 -11 5 -11 10 0 6 2 10 4 10 3 0 8 -4
11 -10z m1296 -33 c-8 -8 -11 -7 -11 4 0 9 3 19 7 23 4 4 9 2 11 -4 3 -7 -1
-17 -7 -23z m-616 13 c3 -5 -1 -10 -10 -10 -9 0 -13 5 -10 10 3 6 8 10 10 10
2 0 7 -4 10 -10z m692 -12 c-3 -8 -6 -5 -6 6 -1 11 2 17 5 13 3 -3 4 -12 1
-19z m183 15 c0 -5 -12 -21 -26 -38 -14 -16 -23 -23 -21 -14 3 9 0 22 -6 28
-6 6 -7 14 -3 18 4 4 11 2 15 -6 7 -10 10 -9 14 3 6 16 27 23 27 9z m-515 -24
c-10 -15 -25 -10 -19 6 4 8 10 12 15 9 5 -3 7 -10 4 -15z m-39 -16 c-6 -6 -36
9 -36 18 0 5 9 4 20 -3 10 -7 18 -14 16 -15z m651 5 c-3 -8 -6 -5 -6 6 -1 11
2 17 5 13 3 -3 4 -12 1 -19z m-1643 -4 c9 -22 -3 -32 -14 -14 -12 19 -12 30
-1 30 5 0 12 -7 15 -16z m582 -5 c14 -16 16 -23 6 -26 -10 -4 -10 -8 -1 -19 7
-8 9 -17 6 -20 -3 -3 -14 4 -24 15 -9 12 -23 21 -30 21 -7 0 -13 5 -13 10 0 6
5 10 10 10 6 0 9 3 9 8 -5 29 12 29 37 1z m204 11 c0 -5 -7 -10 -15 -10 -8 0
-15 5 -15 10 0 6 7 10 15 10 8 0 15 -4 15 -10z m456 -16 c3 -16 -7 -29 -31
-45 -24 -17 -33 -29 -29 -41 12 -38 -24 -17 -40 23 -15 37 -19 40 -42 35 -19
-5 -25 -3 -22 6 3 9 22 12 57 11 46 -2 54 1 58 18 7 27 45 21 49 -7z m114 -6
c0 -14 -5 -18 -16 -14 -9 3 -18 6 -20 6 -3 0 -2 5 1 10 3 6 -3 10 -15 10 -12
0 -19 4 -16 8 3 5 19 7 36 4 22 -3 30 -10 30 -24z m228 14 c-10 -2 -15 -9 -11
-18 4 -10 -2 -14 -21 -14 -14 0 -26 4 -26 10 0 13 53 39 65 32 5 -4 2 -8 -7
-10z m-754 -33 c-2 -5 -15 -4 -29 1 -27 10 -35 -2 -25 -40 8 -32 -16 -70 -44
-69 -14 0 -16 2 -6 6 22 9 34 34 31 66 -3 33 14 58 35 50 9 -3 14 2 14 13 1
18 1 18 15 0 8 -10 12 -23 9 -27z m-469 21 c3 -5 14 -10 23 -10 12 0 18 -9 19
-30 1 -18 -2 -28 -8 -25 -5 4 -6 11 -3 17 5 7 1 9 -9 5 -9 -3 -18 -1 -20 6 -3
9 -8 8 -20 -2 -18 -14 -20 -9 -11 27 7 23 19 29 29 12z m-335 -39 c0 -6 -4
-13 -10 -16 -5 -3 -10 1 -10 9 0 9 5 16 10 16 6 0 10 -4 10 -9z m264 -17 c3
-8 2 -24 -3 -36 -7 -19 -9 -17 -18 19 -8 33 -8 40 2 36 8 -2 16 -11 19 -19z
m630 15 c4 6 12 11 17 11 6 0 7 -6 3 -12 -5 -9 -2 -9 9 1 15 12 17 11 17 -8 0
-11 5 -21 12 -21 6 0 9 -3 5 -6 -3 -3 -12 -2 -19 2 -19 12 -37 14 -43 4 -3 -5
-1 -12 5 -15 14 -9 -7 -35 -27 -35 -11 0 -13 4 -5 13 5 6 8 27 7 46 -2 19 1
28 5 21 5 -9 9 -9 14 -1z m401 1 c3 -6 -1 -7 -9 -4 -9 3 -16 1 -16 -6 0 -6 -5
-8 -11 -4 -8 4 -7 9 2 15 18 11 26 11 34 -1z m-1525 -30 c-12 -16 -24 -30 -26
-30 -7 0 5 20 24 43 24 27 25 20 2 -13z m359 -8 c7 -13 4 -20 -13 -28 -20 -9
-22 -8 -20 10 1 12 3 24 3 29 2 13 20 7 30 -11z m96 -10 c-3 -3 -11 0 -18 7
-9 10 -8 11 6 5 10 -3 15 -9 12 -12z m277 -1 c11 -12 10 -13 -4 -8 -12 4 -18
1 -18 -9 0 -11 6 -15 19 -11 14 3 17 0 14 -14 -3 -11 1 -21 11 -25 19 -7 21
-24 3 -24 -14 0 -49 42 -60 73 -4 10 -14 17 -23 15 -9 -2 -19 2 -20 7 -6 15
63 12 78 -4z m152 3 c9 -23 7 -44 -4 -44 -5 0 -7 7 -4 15 4 9 0 15 -9 15 -8 0
-20 7 -27 15 -11 13 -9 15 13 15 14 0 28 -7 31 -16z m666 7 c0 -10 -50 -25
-57 -17 -3 2 -2 9 2 15 8 13 55 15 55 2z m80 -1 c0 -5 -4 -10 -10 -10 -5 0
-10 5 -10 10 0 6 5 10 10 10 6 0 10 -4 10 -10z m-328 -59 c-3 -20 -8 -28 -18
-24 -17 6 -17 9 -4 34 16 28 27 23 22 -10z m-322 0 c0 -6 -4 -13 -10 -16 -5
-3 -10 1 -10 9 0 9 5 16 10 16 6 0 10 -4 10 -9z m450 -1 c0 -5 -4 -10 -10 -10
-5 0 -10 5 -10 10 0 6 5 10 10 10 6 0 10 -4 10 -10z m-480 -10 c0 -5 -5 -10
-11 -10 -5 0 -7 5 -4 10 3 6 8 10 11 10 2 0 4 -4 4 -10z m510 -4 c0 -3 -4 -8
-10 -11 -5 -3 -10 -1 -10 4 0 6 5 11 10 11 6 0 10 -2 10 -4z m-831 -22 c10 -9
-6 -12 -31 -7 -16 3 -28 9 -28 14 0 8 48 2 59 -7z m477 -11 c0 -10 -7 -23 -15
-29 -7 -6 -14 -25 -15 -41 -1 -24 -4 -29 -13 -21 -7 6 -10 14 -7 20 3 5 1 15
-6 23 -12 14 3 31 19 21 5 -3 12 5 15 19 7 28 25 34 22 8z m368 11 c12 -5 13
-9 3 -25 -13 -20 -67 -27 -67 -8 0 5 5 7 10 4 6 -3 10 0 10 9 0 8 6 17 13 19
6 3 13 6 14 6 1 1 8 -2 17 -5z m-224 -24 c0 -5 -2 -10 -4 -10 -3 0 -8 5 -11
10 -3 6 -1 10 4 10 6 0 11 -4 11 -10z m33 -43 c-18 -28 -10 -43 20 -38 5 1 6
-3 2 -9 -8 -13 -50 -6 -49 8 1 7 2 21 3 33 0 11 6 17 11 14 6 -3 10 -2 10 4 0
5 -5 13 -10 16 -6 4 -7 11 -4 17 5 7 11 3 16 -11 4 -13 5 -28 1 -34z m-483 33
c0 -5 -4 -10 -10 -10 -5 0 -10 5 -10 10 0 6 5 10 10 10 6 0 10 -4 10 -10z
m362 -25 c-5 -29 -8 -30 -28 -11 -12 13 -12 16 3 25 27 16 31 13 25 -14z
m-617 -47 c-4 -10 -14 -14 -26 -11 -19 5 -19 7 -3 25 19 20 38 11 29 -14z
m555 12 c0 -11 -2 -20 -4 -20 -2 0 -6 9 -9 20 -3 11 -1 20 4 20 5 0 9 -9 9
-20z m-82 -24 c-1 -31 -3 -33 -17 -18 -12 11 -13 16 -3 20 6 2 12 10 12 18 0
8 2 14 5 14 2 0 4 -15 3 -34z m-158 3 c0 -6 -4 -7 -10 -4 -5 3 -10 11 -10 16
0 6 5 7 10 4 6 -3 10 -11 10 -16z m386 -20 c19 -22 19 -22 -3 -10 -13 6 -23
16 -23 21 0 15 5 12 26 -11z m96 -1 c-7 -7 -12 -8 -12 -2 0 14 12 26 19 19 2
-3 -1 -11 -7 -17z m-446 -2 c7 -8 19 -16 26 -19 7 -2 9 -8 5 -13 -4 -5 -12 -2
-16 5 -5 8 -14 10 -22 6 -8 -5 -11 -5 -7 0 4 4 3 14 -3 22 -15 17 -1 17 17 -1z
m259 -60 c-9 -19 -23 -40 -31 -47 -13 -10 -13 -8 -4 15 11 29 43 76 48 71 2
-2 -4 -19 -13 -39z m-695 -36 c0 -3 -10 -8 -20 -12 -14 -5 -24 -1 -34 14 -14
20 -13 23 7 43 l22 21 14 -31 c7 -16 12 -32 11 -35z m894 64 c23 -9 20 -23 -4
-17 -11 3 -20 9 -20 14 0 11 3 11 24 3z m-563 -27 c-10 -9 -11 -8 -5 6 3 10 9
15 12 12 3 -3 0 -11 -7 -18z m-201 -18 c0 -11 -4 -17 -10 -14 -5 3 -10 13 -10
21 0 8 5 14 10 14 6 0 10 -9 10 -21z m310 11 c0 -5 -2 -10 -4 -10 -3 0 -8 5
-11 10 -3 6 -1 10 4 10 6 0 11 -4 11 -10z"/>
<path d="M5040 8481 c0 -17 18 -21 24 -6 3 9 0 15 -9 15 -8 0 -15 -4 -15 -9z"/>
<path d="M4856 8112 c-2 -4 0 -14 5 -22 8 -13 10 -13 18 0 10 15 6 30 -9 30
-5 0 -11 -4 -14 -8z"/>
<path d="M5756 7854 c-5 -14 -4 -15 9 -4 17 14 19 20 6 20 -5 0 -12 -7 -15
-16z"/>
<path d="M6710 7640 c0 -5 5 -10 10 -10 6 0 10 5 10 10 0 6 -4 10 -10 10 -5 0
-10 -4 -10 -10z"/>
<path d="M5934 7591 c-1 -23 3 -29 17 -28 23 2 24 20 3 41 -20 20 -19 21 -20
-13z"/>
<path d="M5695 7560 c-3 -5 -1 -10 4 -10 6 0 11 5 11 10 0 6 -2 10 -4 10 -3 0
-8 -4 -11 -10z"/>
<path d="M5787 7425 c-4 -8 -2 -17 3 -20 6 -4 10 3 10 14 0 25 -6 27 -13 6z"/>
<path d="M5753 7400 c-1 -11 2 -18 8 -15 11 7 12 35 1 35 -4 0 -8 -9 -9 -20z"/>
<path d="M5595 8739 c4 -6 1 -10 -6 -8 -29 3 -40 -1 -32 -13 11 -19 15 -98 5
-111 -18 -24 -20 -58 -3 -90 l17 -33 -1 51 c0 33 7 65 19 87 l19 36 18 -22
c17 -19 18 -19 19 -3 0 10 -4 15 -10 12 -5 -3 -7 0 -4 9 3 8 12 12 20 9 14 -5
14 -65 -2 -143 -4 -24 -3 -32 4 -25 5 6 12 19 14 30 2 11 9 21 16 21 6 1 19 2
27 3 8 0 14 4 13 9 -1 4 4 28 11 54 7 26 11 54 8 62 -4 9 -2 18 3 21 6 4 10
-2 10 -12 0 -11 5 -24 11 -30 8 -8 8 -25 0 -64 -7 -30 -9 -73 -5 -98 l7 -46
13 49 c11 44 44 96 44 70 0 -18 44 -10 52 9 12 29 28 19 28 -18 0 -23 -4 -33
-12 -30 -15 6 -71 -106 -66 -131 5 -29 27 -28 24 0 -2 14 1 27 5 27 5 1 14 2
21 3 6 0 13 7 16 15 3 9 0 11 -7 6 -9 -5 -9 -1 1 14 9 15 14 17 18 7 7 -19 50
-2 50 21 0 10 7 27 15 37 8 11 15 27 15 35 0 11 -4 10 -15 -5 -17 -22 -19 -15
-5 20 5 14 16 26 25 26 8 0 15 7 15 15 0 9 7 18 15 21 28 11 15 22 -27 23 -85
2 -92 3 -105 19 -7 10 -10 25 -7 35 3 9 1 17 -5 17 -6 0 -11 -5 -11 -11 0 -8
-4 -8 -14 0 -11 9 -20 9 -34 2 -11 -6 -22 -8 -25 -5 -9 9 -2 -19 10 -42 10
-17 9 -21 -3 -21 -9 0 -17 14 -20 38 -5 26 -10 36 -20 32 -8 -3 -14 1 -14 8 0
9 -3 10 -8 4 -17 -24 -47 -33 -61 -18 -11 12 -16 12 -32 -3 -11 -9 -22 -14
-26 -11 -3 4 -1 7 5 7 7 0 12 7 12 16 0 10 -6 14 -15 10 -8 -3 -15 -1 -15 4 0
6 -5 10 -11 10 -5 0 -7 -5 -4 -11z m115 -128 c-11 -22 -30 -28 -30 -11 0 6 4
10 9 10 5 0 13 10 17 23 4 12 9 17 11 10 2 -7 -1 -21 -7 -32z m243 -46 c-3 -9
-8 -14 -10 -11 -3 3 -2 9 2 15 9 16 15 13 8 -4z m-9 -40 c3 -8 1 -15 -4 -15
-6 0 -10 7 -10 15 0 8 2 15 4 15 2 0 6 -7 10 -15z"/>
<path d="M4940 8730 c0 -5 5 -10 10 -10 6 0 10 5 10 10 0 6 -4 10 -10 10 -5 0
-10 -4 -10 -10z"/>
<path d="M4991 8704 c0 -11 3 -14 6 -6 3 7 2 16 -1 19 -3 4 -6 -2 -5 -13z"/>
<path d="M5615 8610 c-3 -5 -1 -10 4 -10 6 0 11 5 11 10 0 6 -2 10 -4 10 -3 0
-8 -4 -11 -10z"/>
<path d="M6030 8609 c0 -5 5 -7 10 -4 6 3 10 8 10 11 0 2 -4 4 -10 4 -5 0 -10
-5 -10 -11z"/>
<path d="M6102 8580 c-23 -17 -40 -35 -36 -41 3 -6 -3 -24 -15 -40 -11 -15
-21 -34 -21 -41 0 -9 -3 -9 -10 2 -5 8 -5 17 0 20 11 7 25 60 16 60 -4 0 -12
-13 -17 -30 -6 -16 -15 -28 -20 -25 -5 3 -2 -7 6 -22 8 -15 17 -37 21 -48 5
-17 8 -15 19 15 9 27 17 34 33 32 11 -2 24 3 29 10 5 8 10 -2 13 -31 3 -25 10
-46 16 -48 6 -2 22 13 34 34 l23 38 9 -25 c6 -14 12 -20 15 -14 2 7 12 10 22
7 15 -4 18 0 13 22 -2 15 -13 30 -23 32 -11 3 -15 11 -12 20 4 10 8 11 13 3 5
-8 9 -5 12 8 5 16 2 19 -11 14 -9 -3 -22 -12 -29 -19 -21 -20 -32 -15 -32 15
-1 15 -6 40 -13 55 l-12 28 -43 -31z"/>
<path d="M6235 8570 c-3 -5 -1 -10 4 -10 6 0 11 5 11 10 0 6 -2 10 -4 10 -3 0
-8 -4 -11 -10z"/>
<path d="M6186 8554 c-9 -24 -7 -27 9 -10 17 17 19 26 6 26 -5 0 -12 -7 -15
-16z"/>
<path d="M5296 8470 c-26 -27 -16 -46 12 -20 22 20 29 41 15 39 -5 0 -16 -9
-27 -19z"/>
<path d="M2915 8470 c-3 -5 -1 -10 4 -10 6 0 11 5 11 10 0 6 -2 10 -4 10 -3 0
-8 -4 -11 -10z"/>
<path d="M5575 8460 c-3 -6 -3 -20 0 -33 5 -17 4 -19 -4 -7 -6 8 -11 11 -12 5
0 -5 -4 -2 -8 8 -6 15 -9 13 -24 -17 -11 -25 -13 -37 -5 -42 7 -4 8 -3 4 4 -4
7 -2 12 4 12 6 0 9 4 5 9 -9 16 13 22 27 8 17 -18 43 -8 45 17 2 23 -23 51
-32 36z"/>
<path d="M6326 8458 c4 -11 1 -18 -6 -18 -6 0 -17 -6 -25 -13 -9 -9 -32 -13
-65 -11 -47 2 -50 1 -44 -18 5 -16 3 -19 -13 -14 -21 7 -47 -16 -67 -57 -6
-12 -26 -29 -43 -37 -31 -14 -49 -37 -38 -48 2 -3 11 1 20 8 13 11 15 9 15
-14 0 -34 18 -33 26 2 12 54 16 62 29 62 7 0 15 10 18 22 5 18 8 19 21 9 9 -7
22 -11 30 -8 8 3 17 1 19 -6 2 -7 11 1 19 17 9 18 18 25 22 17 4 -6 3 -11 -2
-11 -5 0 -12 -13 -15 -29 -3 -16 -9 -41 -13 -56 -5 -20 -4 -26 5 -21 6 4 11 2
11 -4 0 -6 5 -8 10 -5 6 4 8 15 5 24 -6 19 32 82 54 89 10 3 12 0 8 -12 -4 -9
-2 -16 3 -16 6 0 10 -11 10 -25 0 -14 -4 -25 -10 -25 -5 0 -10 -5 -10 -11 0
-5 16 2 35 17 19 14 35 33 35 41 0 9 6 13 15 9 17 -6 21 9 5 19 -16 10 -12 35
5 29 18 -7 18 -4 6 30 -8 18 -15 23 -30 19 -14 -4 -21 -1 -21 9 0 8 -7 23 -15
34 -13 16 -14 16 -9 2z m-66 -73 c-7 -8 -18 -15 -25 -15 -8 0 -15 -6 -18 -12
-2 -7 -8 -9 -13 -5 -11 10 31 47 53 47 13 0 13 -3 3 -15z m20 -20 c-7 -9 -15
-13 -18 -10 -3 2 1 11 8 20 7 9 15 13 18 10 3 -2 -1 -11 -8 -20z m-113 -27
c-3 -8 -6 -5 -6 6 -1 11 2 17 5 13 3 -3 4 -12 1 -19z m188 -8 c3 -6 -1 -7 -9
-4 -18 7 -21 14 -7 14 6 0 13 -4 16 -10z"/>
<path d="M5615 8430 c-4 -7 -3 -15 3 -19 5 -3 12 -15 15 -26 4 -17 5 -16 6 5
1 33 -13 57 -24 40z"/>
<path d="M6060 8424 c0 -8 5 -12 10 -9 6 3 10 10 10 16 0 5 -4 9 -10 9 -5 0
-10 -7 -10 -16z"/>
<path d="M5748 8377 c-25 -58 -22 -69 5 -26 12 20 27 34 33 32 6 -2 17 4 25
13 12 15 12 16 -9 10 -13 -5 -22 -3 -22 3 0 24 -16 8 -32 -32z"/>
<path d="M5160 8383 c0 -13 -4 -23 -10 -23 -5 0 -10 -10 -10 -22 1 -22 1 -23
15 -4 11 14 15 16 15 5 0 -8 7 -22 14 -32 13 -16 14 -15 18 13 3 22 -2 38 -19
58 -22 26 -23 27 -23 5z"/>
<path d="M5491 8354 c0 -11 3 -14 6 -6 3 7 2 16 -1 19 -3 4 -6 -2 -5 -13z"/>
<path d="M5388 8313 c-19 -10 -25 -19 -21 -33 3 -11 10 -23 15 -26 5 -3 4 -12
-3 -20 -6 -8 -9 -17 -5 -21 3 -3 6 -1 6 5 0 24 19 11 23 -15 3 -23 4 -22 6 9
1 45 10 70 22 62 5 -3 9 2 9 11 0 10 -5 13 -12 9 -8 -5 -9 -2 -5 9 9 23 -3 26
-35 10z"/>
<path d="M5448 8318 c-2 -6 7 -34 20 -60 22 -45 23 -50 8 -67 -9 -10 -16 -21
-16 -25 0 -4 -9 -19 -19 -32 -16 -20 -17 -28 -8 -49 10 -21 13 -22 19 -7 5 13
7 11 8 -8 1 -23 2 -23 10 -5 14 32 12 45 -6 38 -13 -5 -15 -2 -9 18 11 34 15
36 31 14 8 -11 12 -30 9 -42 -3 -12 -1 -25 5 -28 9 -6 14 8 11 28 -3 17 20 5
30 -15 8 -19 9 -14 5 20 -3 35 -1 42 10 38 21 -8 17 8 -9 35 -35 37 -57 76
-57 103 0 13 -7 32 -16 40 -19 19 -21 20 -26 4z m80 -173 c-3 -3 -9 2 -12 12
-6 14 -5 15 5 6 7 -7 10 -15 7 -18z"/>
<path d="M5836 8314 c-4 -9 -4 -19 -1 -22 2 -3 7 3 11 12 4 9 4 19 1 22 -2 3
-7 -3 -11 -12z"/>
<path d="M5997 8305 c-8 -17 -27 -41 -41 -54 -14 -13 -23 -28 -20 -33 3 -5 15
3 26 17 10 14 25 25 33 25 23 0 39 28 28 53 -10 22 -10 22 -26 -8z"/>
<path d="M6405 8300 c-7 -21 -6 -30 2 -29 10 1 21 -31 22 -60 1 -24 0 -24 -13
-5 -12 16 -17 17 -28 6 -11 -11 -10 -12 3 -7 12 4 15 -2 16 -29 1 -27 -4 -36
-24 -45 -13 -6 -29 -8 -35 -5 -7 4 -8 2 -4 -4 4 -7 15 -12 26 -12 10 0 21 -7
24 -16 6 -15 8 -15 26 1 11 10 20 23 20 30 0 7 9 20 20 30 19 17 19 19 2 31
-15 12 -14 12 8 7 14 -3 28 -11 33 -17 4 -6 6 6 4 26 -2 21 0 39 6 41 13 4 19
57 6 57 -5 0 -9 -6 -9 -13 0 -18 -31 -42 -56 -44 -17 -1 -21 4 -21 28 0 18 3
25 8 17 10 -16 23 -3 16 16 -8 19 -46 16 -52 -4z m75 -80 c0 -5 -4 -10 -10
-10 -5 0 -10 5 -10 10 0 6 5 10 10 10 6 0 10 -4 10 -10z"/>
<path d="M6632 8303 c6 -7 14 -13 19 -13 5 0 9 6 9 13 0 7 -9 13 -19 13 -15 0
-17 -3 -9 -13z"/>
<path d="M5020 8290 c0 -5 5 -10 11 -10 5 0 7 5 4 10 -3 6 -8 10 -11 10 -2 0
-4 -4 -4 -10z"/>
<path d="M5637 8286 c-4 -9 -3 -16 2 -16 4 0 13 -11 19 -25 6 -14 17 -24 24
-23 7 2 17 -12 23 -30 16 -46 25 -29 18 32 -7 55 -28 82 -51 63 -10 -8 -16 -7
-21 2 -6 10 -10 9 -14 -3z"/>
<path d="M5150 8271 c0 -25 6 -27 13 -6 4 8 2 17 -3 20 -6 4 -10 -3 -10 -14z"/>
<path d="M5314 8267 c3 -11 9 -30 12 -43 3 -13 11 -24 16 -24 6 0 8 -12 4 -27
-5 -23 -4 -25 5 -10 13 23 4 65 -22 97 -15 18 -19 20 -15 7z"/>
<path d="M5173 8227 c-20 -56 6 -126 27 -72 6 15 15 23 21 19 8 -4 9 1 4 16
-4 14 -3 20 3 16 15 -9 21 28 6 42 -19 18 -26 15 -24 -10 4 -40 0 -58 -11 -58
-6 0 -9 15 -8 34 4 47 -5 53 -18 13z"/>
<path d="M6334 8236 c-15 -11 -13 -12 14 -8 36 5 38 7 18 15 -8 3 -22 0 -32
-7z"/>
<path d="M5585 8194 c-9 -49 -4 -50 22 -3 20 36 20 39 3 39 -13 0 -20 -10 -25
-36z"/>
<path d="M6350 8190 c0 -5 5 -10 11 -10 5 0 7 5 4 10 -3 6 -8 10 -11 10 -2 0
-4 -4 -4 -10z"/>
<path d="M6524 8181 c0 -11 5 -17 13 -14 7 3 17 -6 22 -18 9 -21 10 -22 10 -4
0 22 -21 55 -35 55 -6 0 -10 -8 -10 -19z"/>
<path d="M6016 8175 c-3 -8 -1 -15 4 -15 6 0 10 7 10 15 0 8 -2 15 -4 15 -2 0
-6 -7 -10 -15z"/>
<path d="M6191 8182 c-1 -7 -6 -10 -11 -7 -9 6 -52 -36 -72 -70 -9 -15 1 -55
14 -55 5 0 12 8 15 19 5 19 53 28 53 10 0 -5 -5 -8 -11 -6 -6 1 -18 -9 -27
-23 l-17 -24 40 24 c47 29 75 52 75 61 0 4 -16 6 -35 4 -32 -2 -34 0 -22 14 9
10 11 25 6 41 -4 14 -7 19 -8 12z"/>
<path d="M6281 8160 c-8 -25 -7 -32 4 -37 19 -7 19 -20 0 -40 -9 -8 -13 -18
-10 -21 10 -10 48 36 51 62 2 23 0 24 -22 16 -24 -10 -25 -9 -10 12 18 25 20
38 7 38 -5 0 -14 -14 -20 -30z"/>
<path d="M5266 8163 c-4 -9 -3 -20 1 -24 4 -4 9 3 9 17 2 28 -1 31 -10 7z"/>
<path d="M5097 8099 c11 -23 18 -27 24 -18 9 16 4 26 -21 39 -17 9 -18 8 -3
-21z"/>
<path d="M6478 8100 c-4 -35 -4 -35 -15 -10 -9 18 -12 20 -12 8 -1 -10 -5 -18
-11 -18 -5 0 -7 -6 -4 -14 3 -8 12 -12 20 -9 8 3 14 0 14 -6 0 -10 -14 -15
-32 -12 -5 0 -8 -3 -8 -9 0 -5 12 -10 27 -10 21 0 24 -3 15 -12 -19 -19 -14
-33 6 -15 10 10 24 17 30 17 7 0 12 5 12 10 0 6 -6 10 -14 10 -8 0 -16 7 -20
15 -7 20 3 45 17 39 12 -4 42 34 34 43 -3 2 -14 0 -25 -6 -15 -8 -22 -8 -25 2
-2 6 -6 -4 -9 -23z"/>
<path d="M6566 8093 c-8 -25 7 -66 16 -42 2 8 2 25 -2 39 -6 25 -6 25 -14 3z"/>
<path d="M6332 8075 l-22 -21 26 -23 c29 -25 35 -23 38 13 0 14 4 26 9 26 15
0 7 18 -10 22 -10 3 -28 -5 -41 -17z"/>
<path d="M5566 8058 c-4 -18 -6 -44 -6 -57 0 -13 -9 -31 -21 -39 -19 -13 -19
-15 -2 -28 26 -19 28 -18 29 21 0 20 6 41 13 48 11 10 12 6 9 -20 -3 -23 0
-33 9 -33 7 0 13 9 13 19 0 11 5 23 11 27 6 4 7 9 2 13 -5 3 -17 23 -26 44
-10 20 -19 37 -21 37 -2 0 -7 -15 -10 -32z"/>
<path d="M6075 8067 c-12 -9 -14 -16 -7 -21 6 -3 16 3 22 14 13 24 10 25 -15
7z"/>
<path d="M5170 8060 c0 -6 -4 -9 -9 -6 -15 10 0 -32 17 -47 10 -8 27 -18 40
-22 l24 -7 -24 43 c-23 42 -48 62 -48 39z"/>
<path d="M4260 8049 c0 -5 5 -7 10 -4 6 3 10 8 10 11 0 2 -4 4 -10 4 -5 0 -10
-5 -10 -11z"/>
<path d="M6212 8048 c-15 -15 -16 -28 -1 -28 5 0 7 5 3 11 -4 8 0 9 15 4 13
-4 21 -2 21 5 0 6 -4 9 -9 6 -5 -4 -11 -1 -13 4 -2 7 -8 6 -16 -2z"/>
<path d="M6396 8044 c-5 -14 -4 -15 9 -4 17 14 19 20 6 20 -5 0 -12 -7 -15
-16z"/>
<path d="M6540 8045 c0 -8 5 -15 10 -15 6 0 10 7 10 15 0 8 -4 15 -10 15 -5 0
-10 -7 -10 -15z"/>
<path d="M5287 8023 c-7 -11 10 -40 18 -31 4 4 3 14 -3 24 -5 9 -12 12 -15 7z"/>
<path d="M6080 8019 c0 -5 5 -7 10 -4 6 3 10 8 10 11 0 2 -4 4 -10 4 -5 0 -10
-5 -10 -11z"/>
<path d="M6290 8018 c0 -24 11 -48 22 -48 5 0 6 10 3 23 -10 30 -25 46 -25 25z"/>
<path d="M6396 7994 c-8 -21 -8 -24 4 -24 6 0 9 6 8 13 -2 6 3 11 10 9 8 -1
11 2 7 8 -9 15 -22 12 -29 -6z"/>
<path d="M6142 7988 c-8 -8 -9 -15 0 -25 9 -11 13 -10 24 4 7 10 14 21 14 26
0 11 -25 8 -38 -5z"/>
<path d="M5630 7962 c0 -17 4 -33 9 -36 4 -3 7 9 5 26 -5 42 -14 49 -14 10z"/>
<path d="M6217 7943 c-3 -15 -9 -37 -13 -48 -7 -19 -7 -20 13 -2 15 13 20 27
17 45 -7 36 -10 37 -17 5z"/>
<path d="M6306 7939 c4 -8 0 -9 -15 -4 -25 8 -29 -16 -6 -35 13 -11 11 -16
-20 -37 -42 -28 -47 -41 -7 -19 15 9 39 20 55 26 29 10 37 46 15 68 -15 15
-32 16 -22 1z"/>
<path d="M6366 7935 c4 -8 1 -22 -6 -30 -15 -18 -10 -18 26 -5 l27 10 -23 20
c-28 24 -31 25 -24 5z"/>
<path d="M6405 7940 c-3 -5 -1 -10 4 -10 6 0 11 5 11 10 0 6 -2 10 -4 10 -3 0
-8 -4 -11 -10z"/>
<path d="M6747 7943 c-3 -5 -2 -15 2 -22 5 -7 11 -9 14 -4 3 5 2 15 -2 22 -5
7 -11 9 -14 4z"/>
<path d="M5600 7929 c0 -9 7 -22 15 -29 8 -7 12 -16 9 -21 -3 -5 0 -9 5 -9 16
0 13 11 -9 45 -13 19 -20 24 -20 14z"/>
<path d="M6170 7931 c0 -5 5 -13 10 -16 6 -3 10 -2 10 4 0 5 -4 13 -10 16 -5
3 -10 2 -10 -4z"/>
<path d="M6690 7910 c0 -5 5 -10 10 -10 6 0 10 5 10 10 0 6 -4 10 -10 10 -5 0
-10 -4 -10 -10z"/>
<path d="M6770 7894 c0 -8 5 -12 10 -9 6 4 8 11 5 16 -9 14 -15 11 -15 -7z"/>
<path d="M6226 7881 c-10 -11 -16 -25 -14 -31 2 -6 14 3 26 19 25 34 15 42
-12 12z"/>
<path d="M6437 7883 c-16 -16 -19 -16 -27 -3 -9 13 -10 13 -10 0 0 -8 -10 -21
-21 -28 -15 -9 -18 -17 -11 -24 13 -13 32 -2 32 19 0 11 4 13 13 6 22 -17 40
-9 43 20 3 32 3 32 -19 10z"/>
<path d="M6167 7873 c-11 -11 -8 -20 7 -20 8 0 12 6 9 14 -6 15 -7 15 -16 6z"/>
<path d="M6355 7860 c-4 -6 -14 -9 -22 -6 -10 4 -13 0 -11 -11 4 -21 28 -30
28 -10 0 9 6 17 13 20 6 2 9 7 6 11 -4 4 -10 2 -14 -4z"/>
<path d="M4986 7802 c20 -20 25 -22 43 -10 30 18 21 30 -25 32 l-39 2 21 -24z"/>
<path d="M6335 7800 c-4 -6 -11 -8 -16 -4 -7 4 -9 -5 -7 -22 2 -15 9 -30 17
-32 8 -3 11 0 7 6 -3 6 -2 13 3 17 5 3 9 14 8 25 -1 23 -3 24 -12 10z"/>
<path d="M6355 7740 c-3 -5 -2 -10 4 -10 5 0 13 5 16 10 3 6 2 10 -4 10 -5 0
-13 -4 -16 -10z"/>
<path d="M6440 7700 c0 -5 5 -10 10 -10 6 0 10 -7 10 -15 0 -8 5 -15 10 -15
16 0 11 37 -6 44 -21 8 -24 8 -24 -4z"/>
<path d="M5080 7675 c-8 -9 -8 -15 -2 -15 12 0 26 19 19 26 -2 2 -10 -2 -17
-11z"/>
<path d="M6410 7655 c7 -9 15 -13 17 -11 7 7 -7 26 -19 26 -6 0 -6 -6 2 -15z"/>
<path d="M5005 7590 c3 -5 8 -10 11 -10 2 0 4 5 4 10 0 6 -5 10 -11 10 -5 0
-7 -4 -4 -10z"/>
<path d="M6520 7500 c6 -11 18 -20 27 -20 14 0 14 2 -2 20 -10 11 -22 20 -27
20 -5 0 -4 -9 2 -20z"/>
<path d="M6483 7488 c-1 -11 5 -30 13 -42 16 -24 19 -40 4 -31 -16 10 -12 -5
10 -32 15 -20 17 -29 9 -39 -14 -17 -11 -17 29 -3 29 10 31 13 20 32 -13 25
-12 27 13 45 11 7 19 18 19 24 0 7 -6 6 -15 -2 -12 -10 -18 -10 -30 0 -13 11
-13 15 -3 21 9 6 6 9 -9 9 -13 0 -28 9 -35 20 -16 26 -23 25 -25 -2z"/>
<path d="M6430 7496 c0 -2 7 -7 16 -10 8 -3 12 -2 9 4 -6 10 -25 14 -25 6z"/>
<path d="M4213 7365 c4 -25 4 -25 -14 -9 -11 9 -19 12 -19 7 0 -6 7 -16 16
-23 12 -11 18 -11 30 2 8 8 12 22 8 31 -10 27 -27 20 -21 -8z"/>
<path d="M6367 7345 c-5 -11 0 -15 16 -15 12 0 18 4 12 8 -5 4 -13 11 -16 15
-4 4 -9 1 -12 -8z"/>
<path d="M4290 7325 c0 -8 4 -15 10 -15 5 0 7 7 4 15 -4 8 -8 15 -10 15 -2 0
-4 -7 -4 -15z"/>
<path d="M4225 7310 c3 -5 11 -10 16 -10 6 0 7 5 4 10 -3 6 -11 10 -16 10 -6
0 -7 -4 -4 -10z"/>
<path d="M6768 7253 c7 -3 16 -2 19 1 4 3 -2 6 -13 5 -11 0 -14 -3 -6 -6z"/>
<path d="M4706 6834 c-8 -21 -9 -20 13 -20 16 0 17 4 10 18 -12 22 -15 22 -23
2z"/>
<path d="M5922 6568 c-8 -8 -3 -22 20 -55 17 -23 33 -42 35 -40 1 2 -6 22 -17
46 -12 23 -18 46 -15 51 9 14 -9 12 -23 -2z"/>
<path d="M5465 6543 c2 -16 7 -46 11 -68 l6 -40 16 30 c8 17 14 31 13 33 -1 1
6 16 15 33 l16 32 -26 -5 c-15 -3 -29 -1 -32 3 -11 19 -23 8 -19 -18z"/>
<path d="M5266 6018 c-3 -13 0 -27 6 -33 8 -7 9 -6 4 3 -4 6 -2 12 3 12 6 0
11 9 11 20 0 27 -16 25 -24 -2z"/>
<path d="M5168 5050 c-2 -22 0 -40 4 -40 5 0 8 18 8 40 0 22 -2 40 -4 40 -2 0
-6 -18 -8 -40z"/>
<path d="M5130 4634 c-6 -14 -10 -30 -10 -35 0 -6 -4 -8 -9 -5 -5 3 -11 -1
-15 -9 -3 -9 3 -19 14 -25 14 -7 20 -7 20 0 0 18 20 11 21 -7 0 -10 5 -4 10
12 11 34 3 95 -12 95 -5 0 -14 -12 -19 -26z"/>
<path d="M5069 4633 c0 -5 -2 -18 -3 -31 -2 -13 1 -25 5 -28 5 -3 8 11 7 31
-1 31 -7 48 -9 28z"/>
<path d="M5095 4529 c-4 -6 -5 -13 -2 -16 7 -7 27 6 27 18 0 12 -17 12 -25 -2z"/>
<path d="M5090 4447 c0 -13 -6 -16 -25 -13 -13 3 -29 7 -34 10 -12 8 -17 -34
-40 -324 -33 -397 -40 -503 -51 -740 -16 -350 -19 -432 -30 -785 -17 -520 -67
-1432 -85 -1542 -3 -17 -8 -55 -10 -85 -3 -29 -10 -82 -15 -118 -6 -36 -14
-108 -19 -160 -10 -111 -66 -279 -150 -451 -28 -58 -51 -113 -51 -123 0 -9 -7
-27 -15 -40 -21 -32 -5 -43 65 -47 64 -3 87 5 117 38 27 31 47 117 33 143 -7
13 -7 21 0 25 5 3 10 17 10 31 0 25 37 142 50 159 19 24 68 265 69 335 1 67
23 395 35 525 3 28 10 158 16 290 6 132 14 256 17 275 3 19 6 62 8 95 2 33 6
68 10 77 4 9 3 23 -1 29 -7 11 -6 441 1 559 3 63 16 348 19 445 2 56 -1 90
-12 112 -12 26 -13 37 -3 55 l11 23 -4 -25 c-2 -14 0 -34 4 -45 6 -13 9 5 9
54 1 41 4 72 7 68 4 -3 6 -54 5 -112 -1 -67 2 -105 9 -105 5 0 11 12 12 28 3
54 4 69 12 162 4 52 9 126 11 163 2 38 7 72 10 75 7 7 -2 -276 -12 -368 -7
-69 -8 -149 -1 -156 7 -6 14 60 38 386 11 146 25 301 31 345 6 44 13 100 14
125 7 85 37 345 42 360 3 8 5 32 3 54 -1 25 2 36 9 32 6 -4 11 -3 11 3 0 5 -6
11 -12 14 -9 3 -7 10 7 21 13 10 15 15 7 16 -10 0 -12 8 -7 29 5 23 2 32 -14
40 -11 6 -24 11 -29 11 -18 0 -35 -89 -28 -146 4 -34 3 -53 -3 -50 -10 7 -19
-26 -25 -87 -2 -21 -6 -41 -10 -44 -9 -9 -1 105 15 230 13 95 13 98 -9 119
-19 20 -22 20 -22 5z m90 -114 c0 -23 -4 -33 -9 -27 -9 8 -4 64 5 64 2 0 4
-17 4 -37z m-13 -90 c-3 -10 -5 -2 -5 17 0 19 2 27 5 18 2 -10 2 -26 0 -35z
m-9 -115 c-4 -51 -14 -149 -23 -218 -9 -69 -21 -185 -27 -257 -9 -97 -15 -133
-25 -133 -7 0 -16 -12 -20 -27 -7 -27 -7 -27 -15 12 -6 26 -5 41 2 43 5 2 10
13 10 24 0 12 6 26 14 32 8 6 17 34 20 61 6 63 43 402 52 475 6 56 11 80 16
80 2 0 0 -42 -4 -92z m-51 -63 c0 -8 -4 -12 -9 -9 -5 3 -6 10 -3 15 9 13 12
11 12 -6z m-97 -235 l-8 -35 -1 45 c-1 27 3 40 8 35 6 -6 6 -25 1 -45z m82 5
c-2 -14 -9 -25 -14 -25 -5 0 -7 3 -5 8 2 4 7 15 10 25 9 25 15 21 9 -8z m-82
-67 c0 -16 -3 -19 -11 -11 -6 6 -8 16 -5 22 11 17 16 13 16 -11z m70 -53 c0
-25 -4 -45 -10 -45 -11 0 -14 49 -4 74 10 26 14 18 14 -29z m-80 -76 c-1 -52
-5 -114 -9 -139 l-8 -45 -2 51 c-1 63 11 236 16 230 2 -2 4 -46 3 -97z m57
-216 c-4 -16 -10 -46 -15 -68 l-10 -40 -1 52 c-1 56 6 83 21 83 6 0 8 -12 5
-27z m-75 -28 c-2 -19 -6 -35 -8 -35 -2 0 -4 16 -4 35 0 19 4 35 8 35 4 0 6
-16 4 -35z m-6 -201 c-3 -86 -7 -159 -11 -162 -7 -7 -6 181 1 257 12 107 16
66 10 -95z m31 124 c-3 -7 -5 -2 -5 12 0 14 2 19 5 13 2 -7 2 -19 0 -25z m-10
-220 c-3 -8 -6 -5 -6 6 -1 11 2 17 5 13 3 -3 4 -12 1 -19z m-40 -195 c-3 -10
-5 -4 -5 12 0 17 2 24 5 18 2 -7 2 -21 0 -30z m-10 -325 c-3 -7 -5 -2 -5 12 0
14 2 19 5 13 2 -7 2 -19 0 -25z m-10 -200 c-3 -8 -6 -5 -6 6 -1 11 2 17 5 13
3 -3 4 -12 1 -19z m0 -70 c-3 -7 -5 -2 -5 12 0 14 2 19 5 13 2 -7 2 -19 0 -25z
m-44 -1350 c6 -4 4 -12 -7 -23 -22 -22 -24 -18 -18 30 4 25 7 33 10 20 2 -11
9 -23 15 -27z m17 38 c0 -3 -4 -8 -10 -11 -5 -3 -10 -1 -10 4 0 6 5 11 10 11
6 0 10 -2 10 -4z m-13 -103 c-3 -10 -5 -4 -5 12 0 17 2 24 5 18 2 -7 2 -21 0
-30z"/>
<path d="M5072 3560 c0 -19 2 -27 5 -17 2 9 2 25 0 35 -3 9 -5 1 -5 -18z"/>
<path d="M5140 4450 c0 -5 5 -10 11 -10 5 0 7 5 4 10 -3 6 -8 10 -11 10 -2 0
-4 -4 -4 -10z"/>
<path d="M5028 3009 c-1 -28 0 -56 4 -62 4 -7 8 2 8 19 0 17 3 46 6 63 4 19 2
31 -4 31 -5 0 -12 -23 -14 -51z"/>
<path d="M5072 2935 c0 -16 2 -22 5 -12 2 9 2 23 0 30 -3 6 -5 -1 -5 -18z"/>
<path d="M5022 2705 c0 -16 2 -22 5 -12 2 9 2 23 0 30 -3 6 -5 -1 -5 -18z"/>
<path d="M5009 2520 c-1 -41 -3 -87 -3 -102 -1 -16 2 -28 5 -28 10 0 16 179 7
194 -4 6 -8 -23 -9 -64z"/>
<path d="M5007 2336 c-4 -10 -5 -21 -2 -24 9 -9 17 6 13 25 -3 17 -4 17 -11
-1z"/>
<path d="M5003 2245 c0 -33 2 -45 4 -27 2 18 2 45 0 60 -2 15 -4 0 -4 -33z"/>
</g>
</svg>
